<svg width="56" height="44" viewBox="0 0 56 44" fill="none" xmlns="http://www.w3.org/2000/svg">
<path d="M3.38867 13.2246C3.43815 13.3483 3.5 13.4473 3.57422 13.5215C3.6237 13.571 3.67318 13.6452 3.72266 13.7441C3.94531 13.9421 4.06901 14.041 4.09375 14.041C4.24219 14.14 4.42773 14.2018 4.65039 14.2266C4.92253 14.276 5.0957 14.3008 5.16992 14.3008C5.24414 14.276 5.31836 14.2884 5.39258 14.3379C5.41732 14.4368 5.45443 14.5234 5.50391 14.5977C5.52865 14.6471 5.52865 14.7337 5.50391 14.8574C5.40495 15.0306 5.35547 15.1296 5.35547 15.1543C5.35547 15.1543 5.33073 15.179 5.28125 15.2285C5.15755 15.5254 5.0957 15.7357 5.0957 15.8594C4.89779 16.082 4.78646 16.2057 4.76172 16.2305C4.73698 16.2552 4.73698 16.3047 4.76172 16.3789C4.6875 16.4036 4.62565 16.4408 4.57617 16.4902C4.52669 16.5397 4.47721 16.5892 4.42773 16.6387C4.20508 16.8861 4.10612 16.985 4.13086 16.9355C4.13086 16.8861 4.10612 16.8737 4.05664 16.8984C3.93294 16.9479 3.83398 16.9479 3.75977 16.8984C3.66081 16.849 3.54948 16.8242 3.42578 16.8242C3.07943 16.7995 2.88151 16.7624 2.83203 16.7129C2.75781 16.6634 2.68359 16.6634 2.60938 16.7129C2.46094 16.5645 2.37435 16.4531 2.34961 16.3789C2.30013 16.2799 2.22591 16.1934 2.12695 16.1191C1.95378 15.946 1.85482 15.8594 1.83008 15.8594C1.7806 15.8346 1.75586 15.7975 1.75586 15.748C1.58268 15.5254 1.49609 15.377 1.49609 15.3027C1.49609 15.2285 1.44661 15.179 1.34766 15.1543C1.34766 14.9811 1.31055 14.8203 1.23633 14.6719C1.21159 14.5977 1.17448 14.5358 1.125 14.4863C1.07552 14.4121 1.02604 14.3255 0.976562 14.2266L0.902344 13.6328L0.791016 13.1875C0.791016 12.9401 0.791016 12.8164 0.791016 12.8164C0.766276 12.7917 0.753906 12.7546 0.753906 12.7051C0.778646 12.4824 0.803385 12.3587 0.828125 12.334C0.828125 12.3092 0.828125 12.2721 0.828125 12.2227C0.803385 11.9505 0.815755 11.7773 0.865234 11.7031C0.889974 11.6042 0.914714 11.5052 0.939453 11.4062C1.01367 11.1589 1.05078 10.9857 1.05078 10.8867C1.14974 10.7135 1.19922 10.5527 1.19922 10.4043C1.29818 10.3301 1.36003 10.2188 1.38477 10.0703C1.40951 9.92188 1.47135 9.81055 1.57031 9.73633C1.64453 9.48893 1.69401 9.34049 1.71875 9.29102C1.74349 9.24154 1.7806 9.19206 1.83008 9.14258C1.97852 8.89518 2.05273 8.77148 2.05273 8.77148C2.05273 8.74674 2.0651 8.70964 2.08984 8.66016C2.23828 8.48698 2.32487 8.38802 2.34961 8.36328C2.37435 8.33854 2.41146 8.3138 2.46094 8.28906C2.58464 8.06641 2.69596 7.89323 2.79492 7.76953C2.86914 7.64583 2.98047 7.53451 3.12891 7.43555C3.42578 7.18815 3.58659 6.97786 3.61133 6.80469C3.85872 6.73047 4.09375 6.56966 4.31641 6.32227C4.58854 6.14909 4.74935 6.01302 4.79883 5.91406C4.92253 5.86458 5.03385 5.80273 5.13281 5.72852C5.20703 5.62956 5.30599 5.54297 5.42969 5.46875C5.55339 5.49349 5.63997 5.50586 5.68945 5.50586C5.73893 5.48112 5.78841 5.45638 5.83789 5.43164C5.93685 5.4069 6.02344 5.36979 6.09766 5.32031C6.14714 5.24609 6.24609 5.22135 6.39453 5.24609C6.64193 5.14714 6.8151 5.09766 6.91406 5.09766C7.03776 5.07292 7.13672 5.03581 7.21094 4.98633C7.43359 4.93685 7.55729 4.89974 7.58203 4.875C7.63151 4.85026 7.66862 4.81315 7.69336 4.76367C7.99023 4.81315 8.28711 4.81315 8.58398 4.76367C8.9056 4.71419 9.21484 4.71419 9.51172 4.76367C9.58594 4.78841 9.64779 4.82552 9.69727 4.875C9.77148 4.89974 9.8457 4.91211 9.91992 4.91211C10.1426 4.86263 10.2663 4.86263 10.291 4.91211C10.3405 4.93685 10.39 4.94922 10.4395 4.94922C10.6374 4.94922 10.7611 4.94922 10.8105 4.94922C10.86 4.92448 10.9095 4.91211 10.959 4.91211C11.1816 4.98633 11.3301 5.02344 11.4043 5.02344C11.4785 4.9987 11.5404 5.01107 11.5898 5.06055C11.8372 5.03581 11.9733 5.04818 11.998 5.09766C12.0228 5.1224 12.0599 5.13477 12.1094 5.13477C12.3073 5.13477 12.4805 5.17188 12.6289 5.24609C12.7773 5.29557 12.9629 5.29557 13.1855 5.24609C13.4824 5.29557 13.668 5.34505 13.7422 5.39453C13.8164 5.41927 13.8783 5.44401 13.9277 5.46875C14.1257 5.46875 14.2741 5.46875 14.373 5.46875C14.4967 5.46875 14.6204 5.48112 14.7441 5.50586C14.9668 5.60482 15.1152 5.6543 15.1895 5.6543C15.2884 5.62956 15.4368 5.62956 15.6348 5.6543C15.9069 5.70378 16.0924 5.76562 16.1914 5.83984C16.2904 5.88932 16.4264 5.90169 16.5996 5.87695C16.8223 5.87695 17.0078 5.90169 17.1562 5.95117C17.3294 5.90169 17.4531 5.90169 17.5273 5.95117C17.6016 5.97591 17.6758 6.00065 17.75 6.02539C17.9974 6.02539 18.1458 6.05013 18.1953 6.09961C18.2448 6.12435 18.2943 6.13672 18.3438 6.13672C18.5169 6.13672 18.6777 6.12435 18.8262 6.09961C18.9993 6.05013 19.1478 6.08724 19.2715 6.21094C19.6426 6.21094 19.9147 6.1862 20.0879 6.13672C20.2611 6.0625 20.4095 6.07487 20.5332 6.17383C20.8548 6.12435 21.0156 6.01302 21.0156 5.83984C21.0898 5.79036 21.1517 5.74089 21.2012 5.69141C21.2754 5.64193 21.2878 5.55534 21.2383 5.43164C21.5352 5.18424 21.7331 4.94922 21.832 4.72656C21.9805 4.50391 22.0794 4.39258 22.1289 4.39258C22.1784 4.39258 22.2155 4.36784 22.2402 4.31836C22.3887 4.02148 22.4876 3.88542 22.5371 3.91016C22.735 3.73698 22.8464 3.65039 22.8711 3.65039C22.9206 3.62565 22.9701 3.58854 23.0195 3.53906C23.1927 3.31641 23.2917 3.19271 23.3164 3.16797C23.4648 2.97005 23.5638 2.85872 23.6133 2.83398C23.6875 2.80924 23.737 2.75977 23.7617 2.68555C23.9844 2.56185 24.1699 2.46289 24.3184 2.38867C24.4915 2.24023 24.6152 2.14128 24.6895 2.0918C24.7884 2.01758 24.8997 1.94336 25.0234 1.86914C25.2461 1.67122 25.3698 1.54753 25.3945 1.49805C25.4193 1.44857 25.444 1.38672 25.4688 1.3125C25.6172 1.3125 25.7533 1.30013 25.877 1.27539C26.0254 1.25065 26.1367 1.1888 26.2109 1.08984C26.582 0.941406 26.9284 0.854818 27.25 0.830078C27.5964 0.805339 27.8932 0.768229 28.1406 0.71875C28.5859 0.71875 28.9199 0.74349 29.1426 0.792969C29.3652 0.817708 29.5384 0.891927 29.6621 1.01562C29.8353 1.01562 29.959 1.0651 30.0332 1.16406C30.1074 1.23828 30.2188 1.28776 30.3672 1.3125C30.4167 1.48568 30.5156 1.60938 30.6641 1.68359C30.8125 1.75781 30.9362 1.85677 31.0352 1.98047C31.0352 2.05469 31.0475 2.12891 31.0723 2.20312C31.1217 2.2526 31.1712 2.30208 31.2207 2.35156C31.3444 2.67318 31.431 2.87109 31.4805 2.94531C31.5547 2.99479 31.5918 3.08138 31.5918 3.20508C31.4928 3.37826 31.431 3.47721 31.4062 3.50195C31.3815 3.50195 31.3568 3.51432 31.332 3.53906C31.2578 3.73698 31.1712 3.92253 31.0723 4.0957C30.998 4.24414 30.8372 4.3431 30.5898 4.39258C30.4661 4.68945 30.4043 4.83789 30.4043 4.83789C30.2064 5.06055 30.0703 5.23372 29.9961 5.35742C29.9466 5.45638 29.86 5.5306 29.7363 5.58008C29.6374 5.82747 29.5755 5.96354 29.5508 5.98828C29.526 5.98828 29.4889 5.98828 29.4395 5.98828C29.3652 6.03776 29.2786 6.09961 29.1797 6.17383C29.1055 6.22331 29.0065 6.27279 28.8828 6.32227C28.8333 6.44596 28.7591 6.54492 28.6602 6.61914C28.5612 6.66862 28.4746 6.74284 28.4004 6.8418C28.1777 6.89128 28.054 6.92839 28.0293 6.95312C28.0293 6.97786 28.0169 6.99023 27.9922 6.99023C27.7448 7.13867 27.5716 7.22526 27.4727 7.25C27.3984 7.25 27.349 7.28711 27.3242 7.36133C27.2005 7.36133 27.1016 7.38607 27.0273 7.43555C26.9531 7.48503 26.8542 7.52214 26.7305 7.54688C26.5573 7.57161 26.4089 7.58398 26.2852 7.58398C25.9883 7.73242 25.8398 7.81901 25.8398 7.84375C25.4688 7.86849 25.209 7.9056 25.0605 7.95508C24.9368 8.00456 24.8132 7.99219 24.6895 7.91797C24.4668 8.01693 24.3307 8.07878 24.2812 8.10352C24.0091 8.15299 23.8236 8.14062 23.7246 8.06641C23.502 8.16536 23.3783 8.22721 23.3535 8.25195C23.3535 8.27669 23.3411 8.28906 23.3164 8.28906C23.2422 8.28906 23.168 8.28906 23.0938 8.28906C23.0443 8.26432 22.9824 8.26432 22.9082 8.28906C22.7598 8.28906 22.6113 8.3138 22.4629 8.36328C22.3392 8.41276 22.2279 8.41276 22.1289 8.36328C22.0299 8.38802 21.9434 8.41276 21.8691 8.4375C21.8197 8.46224 21.7702 8.47461 21.7207 8.47461C21.6217 8.52409 21.5599 8.62305 21.5352 8.77148C21.5104 8.89518 21.4486 8.98177 21.3496 9.03125C21.3496 9.17969 21.3496 9.30339 21.3496 9.40234C21.3743 9.47656 21.362 9.57552 21.3125 9.69922C21.3125 9.99609 21.3001 10.2559 21.2754 10.4785C21.2507 10.6764 21.263 10.862 21.3125 11.0352C21.1888 11.2331 21.127 11.431 21.127 11.6289C21.1517 11.8268 21.1641 12.0247 21.1641 12.2227C21.1393 12.4453 21.1641 12.6061 21.2383 12.7051C21.2878 12.7793 21.3001 12.9154 21.2754 13.1133C21.2507 13.2865 21.2383 13.4473 21.2383 13.5957C21.2135 13.7936 21.1888 13.9792 21.1641 14.1523C21.1641 14.3255 21.2259 14.4987 21.3496 14.6719C21.5723 14.6719 21.7702 14.6224 21.9434 14.5234C22.1165 14.3997 22.3021 14.3874 22.5 14.4863C22.9453 14.3379 23.2546 14.1895 23.4277 14.041C23.6504 14.0163 23.7741 14.0163 23.7988 14.041C23.8236 14.0658 23.8607 14.0658 23.9102 14.041C24.1823 13.9173 24.3802 13.8431 24.5039 13.8184C24.6523 13.7936 24.776 13.7318 24.875 13.6328C25.1471 13.5586 25.3079 13.472 25.3574 13.373C25.4811 13.4225 25.5801 13.4349 25.6543 13.4102C25.7533 13.3854 25.8646 13.373 25.9883 13.373C26.1615 13.6204 26.248 13.7812 26.248 13.8555C26.248 13.9297 26.2233 13.9915 26.1738 14.041C26.0501 14.1895 25.9635 14.3008 25.9141 14.375C25.8893 14.4492 25.8522 14.5111 25.8027 14.5605C25.5801 14.7337 25.4688 14.8327 25.4688 14.8574C25.2956 15.1296 25.209 15.2904 25.209 15.3398C25.0111 15.513 24.9121 15.6243 24.9121 15.6738C24.7884 15.7728 24.7266 15.847 24.7266 15.8965C24.7513 15.9212 24.7266 15.9583 24.6523 16.0078C24.6276 16.2552 24.5534 16.3913 24.4297 16.416C24.3307 16.4408 24.2565 16.5026 24.207 16.6016C24.0339 16.651 23.9102 16.7005 23.8359 16.75C23.7865 16.7747 23.737 16.8118 23.6875 16.8613C23.5638 16.9603 23.4277 17.0221 23.2793 17.0469C23.0814 17.0469 23.0195 16.9603 23.0938 16.7871C23.168 16.5892 23.2298 16.4284 23.2793 16.3047C23.2051 16.2552 23.1309 16.2552 23.0566 16.3047C22.9824 16.3294 22.9082 16.3542 22.834 16.3789C22.5866 16.3047 22.4258 16.2799 22.3516 16.3047C22.2773 16.3294 22.1908 16.3542 22.0918 16.3789H21.6465C21.3991 16.4284 21.2754 16.4902 21.2754 16.5645C21.2754 16.6387 21.2507 16.7005 21.2012 16.75C21.2754 16.7995 21.3001 16.8613 21.2754 16.9355C21.2507 17.0098 21.263 17.084 21.3125 17.1582C21.3372 17.2077 21.3372 17.2695 21.3125 17.3438C21.3125 17.3932 21.3125 17.4674 21.3125 17.5664C21.263 17.8138 21.2507 17.9622 21.2754 18.0117C21.3249 18.0365 21.3496 18.0736 21.3496 18.123C21.3743 18.3457 21.362 18.5684 21.3125 18.791C21.2878 19.0137 21.3001 19.224 21.3496 19.4219C21.3496 19.4714 21.362 19.5332 21.3867 19.6074C21.4362 19.6816 21.4609 19.7559 21.4609 19.8301C21.4362 20.0033 21.4362 20.1393 21.4609 20.2383C21.5104 20.3372 21.5352 20.4486 21.5352 20.5723C21.5599 20.8197 21.5475 20.9557 21.498 20.9805C21.4733 20.9805 21.4733 21.0176 21.498 21.0918C21.5475 21.3392 21.5475 21.5124 21.498 21.6113C21.4733 21.7103 21.4857 21.8092 21.5352 21.9082C21.4362 22.1803 21.3991 22.3411 21.4238 22.3906C21.4733 22.4154 21.5228 22.4648 21.5723 22.5391C21.597 22.6875 21.597 22.8112 21.5723 22.9102C21.5723 22.9844 21.5846 23.0833 21.6094 23.207C21.6094 23.4792 21.6094 23.7142 21.6094 23.9121C21.6094 24.11 21.6465 24.2708 21.7207 24.3945C21.6712 24.5924 21.6712 24.778 21.7207 24.9512C21.7949 25.0996 21.8444 25.3099 21.8691 25.582C21.8691 25.8542 21.8568 26.015 21.832 26.0645C21.832 26.1139 21.832 26.1634 21.832 26.2129L21.9062 26.6953C21.9557 26.8685 21.9681 26.9674 21.9434 26.9922C21.9434 27.0169 21.9434 27.054 21.9434 27.1035C21.9434 27.153 21.9434 27.2272 21.9434 27.3262C21.9434 27.4004 21.9557 27.4993 21.9805 27.623C22.0052 27.7467 22.0299 27.8704 22.0547 27.9941C22.1042 28.0931 22.0794 28.2044 21.9805 28.3281C22.0052 28.6003 22.0176 28.7487 22.0176 28.7734C22.0423 28.7982 22.0547 28.8353 22.0547 28.8848V29.5898C22.0547 29.6641 22.0547 29.7383 22.0547 29.8125C22.0794 29.862 22.0671 29.9238 22.0176 29.998C22.0671 30.196 22.0794 30.3073 22.0547 30.332C22.0547 30.3568 22.0547 30.3939 22.0547 30.4434C22.0547 30.6908 22.0423 30.8268 22.0176 30.8516C21.9928 30.8763 21.9805 30.9134 21.9805 30.9629C22.0052 31.2598 22.0176 31.4453 22.0176 31.5195C22.0176 31.6185 22.0052 31.6927 21.9805 31.7422L21.9062 32.2988C21.931 32.4225 21.9186 32.5462 21.8691 32.6699C21.8197 32.8184 21.7826 32.9544 21.7578 33.0781C21.6836 33.375 21.6465 33.5605 21.6465 33.6348C21.6712 33.709 21.6712 33.7708 21.6465 33.8203C21.5723 33.9688 21.5104 34.0801 21.4609 34.1543C21.4362 34.2533 21.4486 34.3522 21.498 34.4512C21.4238 34.5501 21.3372 34.6986 21.2383 34.8965C21.1146 35.1191 21.0527 35.2676 21.0527 35.3418C21.0033 35.3913 20.9538 35.4408 20.9043 35.4902C20.8796 35.5397 20.8672 35.6263 20.8672 35.75C20.694 35.9974 20.5579 36.1706 20.459 36.2695C20.36 36.3685 20.3105 36.5169 20.3105 36.7148C20.1621 36.8633 20.0755 36.9499 20.0508 36.9746C20.0508 36.9993 20.0632 37.0365 20.0879 37.0859C19.9642 37.2096 19.8529 37.3333 19.7539 37.457C19.6797 37.6055 19.5807 37.7415 19.457 37.8652C19.2591 38.1374 19.1354 38.2982 19.0859 38.3477C19.0612 38.4714 19.0117 38.5456 18.9375 38.5703C18.888 38.6198 18.8385 38.6693 18.7891 38.7188C18.6654 38.9414 18.5788 39.0527 18.5293 39.0527C18.5046 39.0775 18.4674 39.1022 18.418 39.127C18.3932 39.2259 18.3066 39.3496 18.1582 39.498C17.9108 39.7207 17.7253 39.8939 17.6016 40.0176C17.5026 40.166 17.416 40.3268 17.3418 40.5C17.2676 40.5495 17.1934 40.5866 17.1191 40.6113C17.0697 40.6608 17.0078 40.6979 16.9336 40.7227C16.7357 40.9948 16.5872 41.1432 16.4883 41.168C16.4141 41.1927 16.3522 41.2422 16.3027 41.3164C16.1296 41.4154 15.9935 41.4896 15.8945 41.5391C15.7956 41.6133 15.709 41.6999 15.6348 41.7988C15.4616 41.8236 15.3626 41.8607 15.3379 41.9102C15.3379 41.9596 15.3132 42.0091 15.2637 42.0586C14.8926 42.2812 14.6204 42.4173 14.4473 42.4668C14.2988 42.541 14.1504 42.6276 14.002 42.7266C13.9525 42.7513 13.8783 42.7513 13.7793 42.7266C13.7051 42.7266 13.6309 42.7389 13.5566 42.7637C13.4329 42.7884 13.3092 42.8255 13.1855 42.875C13.0866 42.9492 12.9753 42.9863 12.8516 42.9863C12.6784 42.9616 12.5052 42.9616 12.332 42.9863C12.1589 43.0358 12.0104 43.0605 11.8867 43.0605C11.5404 43.0358 11.293 43.0234 11.1445 43.0234C10.9961 43.0234 10.86 42.9616 10.7363 42.8379C10.5384 42.9121 10.3405 42.9245 10.1426 42.875C9.94466 42.8255 9.75911 42.776 9.58594 42.7266C9.33854 42.6523 9.17773 42.5658 9.10352 42.4668C9.0293 42.3926 8.9056 42.3802 8.73242 42.4297C8.43555 42.2318 8.23763 42.0957 8.13867 42.0215C8.03971 41.9473 7.90365 41.8854 7.73047 41.8359C7.68099 41.737 7.61914 41.6628 7.54492 41.6133C7.4707 41.5638 7.40885 41.502 7.35938 41.4277C7.13672 41.1556 6.96354 40.9577 6.83984 40.834C6.71615 40.7103 6.59245 40.5866 6.46875 40.4629C6.39453 40.3639 6.32031 40.265 6.24609 40.166C6.19661 40.0671 6.1224 39.9928 6.02344 39.9434C6.04818 39.8444 6.02344 39.7578 5.94922 39.6836C5.875 39.6341 5.81315 39.5846 5.76367 39.5352L5.61523 39.0898C5.41732 38.7188 5.33073 38.4219 5.35547 38.1992C5.35547 37.9766 5.33073 37.7539 5.28125 37.5312C5.33073 37.2591 5.31836 37.0983 5.24414 37.0488C5.26888 36.7025 5.2194 36.4798 5.0957 36.3809C5.16992 36.0592 5.2194 35.8366 5.24414 35.7129C5.26888 35.6139 5.24414 35.515 5.16992 35.416C5.29362 35.1686 5.35547 34.9707 5.35547 34.8223C5.33073 34.6986 5.3431 34.5749 5.39258 34.4512C5.49154 34.2533 5.55339 34.1172 5.57812 34.043C5.57812 33.9688 5.55339 33.9069 5.50391 33.8574C5.60286 33.7337 5.67708 33.6471 5.72656 33.5977C5.7513 33.5482 5.76367 33.4987 5.76367 33.4492C5.91211 33.0781 6.03581 32.8678 6.13477 32.8184C6.18424 32.6452 6.20898 32.5339 6.20898 32.4844C6.20898 32.4349 6.23372 32.3854 6.2832 32.3359C6.43164 32.1133 6.51823 31.9525 6.54297 31.8535C6.59245 31.7546 6.66667 31.6803 6.76562 31.6309C6.83984 31.3835 6.95117 31.235 7.09961 31.1855C7.24805 30.9629 7.35938 30.8021 7.43359 30.7031C7.53255 30.6042 7.63151 30.4928 7.73047 30.3691C7.87891 30.196 7.96549 30.097 7.99023 30.0723C8.01497 30.0475 8.05208 30.0228 8.10156 29.998C8.15104 29.8743 8.21289 29.7878 8.28711 29.7383C8.36133 29.6888 8.42318 29.6022 8.47266 29.4785C8.74479 29.3548 8.96745 29.2188 9.14062 29.0703C9.3138 28.9219 9.54883 28.8353 9.8457 28.8105C10.2663 28.7363 10.5384 28.6868 10.6621 28.6621C10.8105 28.6374 10.959 28.6868 11.1074 28.8105C11.3053 28.7611 11.5033 28.7611 11.7012 28.8105C11.998 28.86 12.1712 28.9095 12.2207 28.959C12.2702 28.9837 12.3197 28.9837 12.3691 28.959C12.5176 29.0332 12.6289 29.0951 12.7031 29.1445C12.7773 29.1693 12.8763 29.194 13 29.2188C13.3958 29.5404 13.6432 29.7259 13.7422 29.7754C13.7422 29.8496 13.7669 29.9115 13.8164 29.9609C13.8906 30.0104 13.9277 30.0846 13.9277 30.1836C13.9277 30.4557 13.9401 30.666 13.9648 30.8145C14.0143 30.9629 14.0267 31.0866 14.002 31.1855C13.8288 31.4329 13.7546 31.5566 13.7793 31.5566C13.804 31.5814 13.804 31.6185 13.7793 31.668C13.6061 31.9401 13.4577 32.1628 13.334 32.3359C13.1855 32.3112 13.0618 32.3483 12.9629 32.4473C12.8887 32.5462 12.7897 32.5957 12.666 32.5957C12.5423 32.5957 12.4557 32.571 12.4062 32.5215C12.3815 32.472 12.3073 32.4102 12.1836 32.3359C12.1836 32.1133 12.1465 31.9772 12.0723 31.9277C12.0228 31.8783 11.9857 31.7917 11.9609 31.668C11.6888 31.4948 11.4785 31.3587 11.3301 31.2598C11.1569 31.3092 11.0332 31.2845 10.959 31.1855C10.9095 31.1113 10.8229 31.099 10.6992 31.1484C10.4766 30.9753 10.3405 30.901 10.291 30.9258C10.2415 30.9505 10.1673 30.9753 10.0684 31C9.72201 30.9258 9.51172 30.901 9.4375 30.9258C9.36328 30.9258 9.26432 30.9382 9.14062 30.9629C8.94271 31.0618 8.80664 31.1237 8.73242 31.1484C8.68294 31.1979 8.60872 31.2474 8.50977 31.2969C8.33659 31.3464 8.20052 31.4082 8.10156 31.4824C8.07682 31.6061 8.01497 31.7174 7.91602 31.8164C7.8418 31.9401 7.82943 32.0638 7.87891 32.1875C7.80469 32.237 7.75521 32.2988 7.73047 32.373C7.73047 32.4473 7.68099 32.4844 7.58203 32.4844C7.53255 32.7565 7.44596 32.9792 7.32227 33.1523C7.39648 33.2266 7.40885 33.3503 7.35938 33.5234C7.33464 33.7214 7.35938 33.8698 7.43359 33.9688C7.38411 34.1419 7.37174 34.2533 7.39648 34.3027C7.42122 34.3522 7.43359 34.4017 7.43359 34.4512L7.35938 34.9336C7.35938 35.2057 7.37174 35.3665 7.39648 35.416C7.42122 35.4902 7.43359 35.5645 7.43359 35.6387V36.084C7.53255 36.3809 7.56966 36.5417 7.54492 36.5664C7.54492 36.6159 7.54492 36.6654 7.54492 36.7148C7.66862 37.0117 7.74284 37.1849 7.76758 37.2344C7.81706 37.2839 7.85417 37.3333 7.87891 37.3828C8.0026 37.6549 8.07682 37.8158 8.10156 37.8652C8.17578 37.9147 8.23763 37.9889 8.28711 38.0879C8.36133 38.2116 8.42318 38.3229 8.47266 38.4219C8.69531 38.5951 8.80664 38.694 8.80664 38.7188C8.83138 38.7435 8.88086 38.7559 8.95508 38.7559C9.25195 39.0527 9.4375 39.3001 9.51172 39.498C9.80859 39.5228 10.0931 39.6589 10.3652 39.9062C10.5384 39.931 10.6497 39.9557 10.6992 39.9805C10.7487 40.0299 10.7982 40.0794 10.8477 40.1289C11.1198 40.2526 11.3424 40.3145 11.5156 40.3145C11.7135 40.3392 11.8743 40.4134 11.998 40.5371C12.1217 40.4629 12.2454 40.4505 12.3691 40.5C12.5176 40.5495 12.6536 40.5742 12.7773 40.5742C12.8763 40.5742 12.9629 40.5618 13.0371 40.5371C13.1361 40.5124 13.235 40.5 13.334 40.5C13.6309 40.5247 13.8535 40.5124 14.002 40.4629C14.2741 40.4382 14.4225 40.4134 14.4473 40.3887C14.4967 40.3639 14.5462 40.3516 14.5957 40.3516C14.9173 40.3516 15.1152 40.3392 15.1895 40.3145C15.2884 40.2897 15.375 40.265 15.4492 40.2402C15.5234 40.1908 15.5977 40.1536 15.6719 40.1289C15.7461 40.1289 15.8079 40.0918 15.8574 40.0176L16.3027 39.7578C16.5501 39.5846 16.7109 39.498 16.7852 39.498C16.9583 39.3496 17.0573 39.263 17.082 39.2383C17.1068 39.2383 17.1315 39.2259 17.1562 39.2012C17.2799 39.1022 17.3418 39.028 17.3418 38.9785C17.3418 38.929 17.3913 38.8919 17.4902 38.8672C17.5397 38.7188 17.5768 38.6322 17.6016 38.6074C17.6263 38.5827 17.651 38.5456 17.6758 38.4961C17.75 38.3477 17.8118 38.2487 17.8613 38.1992C17.9108 38.1497 17.9603 38.1003 18.0098 38.0508C18.1582 37.8034 18.2572 37.6549 18.3066 37.6055C18.4551 37.3333 18.5664 37.2096 18.6406 37.2344C18.5911 37.1107 18.6035 37.0241 18.6777 36.9746C18.752 36.9499 18.7767 36.8757 18.752 36.752C18.9499 36.554 19.0488 36.319 19.0488 36.0469C19.1725 35.8984 19.2467 35.7995 19.2715 35.75C19.2962 35.7253 19.321 35.6882 19.3457 35.6387C19.3952 35.3913 19.4323 35.2305 19.457 35.1562C19.4818 35.1068 19.5065 35.0573 19.5312 35.0078C19.556 34.7852 19.5807 34.6367 19.6055 34.5625C19.6302 34.4883 19.6426 34.4141 19.6426 34.3398C19.6673 34.043 19.6921 33.8451 19.7168 33.7461C19.7663 33.6471 19.7786 33.5605 19.7539 33.4863C19.8281 33.2884 19.8529 33.14 19.8281 33.041C19.8281 32.9668 19.8529 32.8926 19.9023 32.8184C19.8776 32.5462 19.8405 32.3359 19.791 32.1875C19.7415 32.0638 19.7415 31.9401 19.791 31.8164C19.7663 31.6185 19.7539 31.4577 19.7539 31.334C19.7786 31.235 19.791 31.1608 19.791 31.1113C19.791 30.8392 19.791 30.6289 19.791 30.4805C19.791 30.3073 19.7539 30.1589 19.6797 30.0352C19.7539 29.9115 19.7786 29.7878 19.7539 29.6641C19.7539 29.5404 19.7292 29.4167 19.6797 29.293C19.6797 29.1693 19.6921 29.0703 19.7168 28.9961C19.7415 28.8971 19.7539 28.7858 19.7539 28.6621C19.6549 28.3652 19.6055 28.1549 19.6055 28.0312C19.6302 27.9076 19.6302 27.7839 19.6055 27.6602C19.6055 27.6107 19.5931 27.5612 19.5684 27.5117C19.5684 27.4375 19.5684 27.3509 19.5684 27.252C19.5931 27.0046 19.5807 26.8314 19.5312 26.7324C19.457 26.4108 19.4199 26.2129 19.4199 26.1387C19.4447 25.7181 19.4323 25.4336 19.3828 25.2852C19.3581 25.1367 19.3457 24.9759 19.3457 24.8027C19.3457 24.679 19.3333 24.5677 19.3086 24.4688C19.3086 24.3451 19.3086 24.2337 19.3086 24.1348C19.3086 23.8379 19.2839 23.6771 19.2344 23.6523C19.2096 23.6276 19.1973 23.6029 19.1973 23.5781C19.2962 23.4544 19.3333 23.306 19.3086 23.1328C19.3086 22.9349 19.2962 22.7741 19.2715 22.6504C19.2467 22.5762 19.2344 22.502 19.2344 22.4277C19.2344 22.3535 19.2096 22.2793 19.1602 22.2051C19.1849 22.1309 19.1973 22.069 19.1973 22.0195C19.222 21.9453 19.2344 21.8464 19.2344 21.7227C19.1849 21.5 19.1602 21.3887 19.1602 21.3887C19.1849 21.3639 19.1973 21.3268 19.1973 21.2773C19.1973 21.1536 19.1849 21.0423 19.1602 20.9434C19.1354 20.8197 19.1478 20.7083 19.1973 20.6094C19.1973 20.3867 19.1849 20.2259 19.1602 20.127C19.1354 20.028 19.0983 19.9414 19.0488 19.8672C19.0983 19.7682 19.123 19.6198 19.123 19.4219C19.123 19.1497 19.1107 19.0137 19.0859 19.0137C19.0612 19.0137 19.0488 18.9889 19.0488 18.9395C19.0488 18.7415 19.0365 18.6178 19.0117 18.5684C18.987 18.4941 18.987 18.3828 19.0117 18.2344C19.0365 18.0859 19.0365 17.987 19.0117 17.9375C18.987 17.888 18.9746 17.8385 18.9746 17.7891C18.9499 17.6901 18.9499 17.5911 18.9746 17.4922C18.9993 17.3932 18.9993 17.2943 18.9746 17.1953C18.6777 17.2448 18.5046 17.2943 18.4551 17.3438C18.4303 17.3685 18.3809 17.3932 18.3066 17.418C17.985 17.3932 17.7253 17.4798 17.5273 17.6777C17.0573 17.752 16.6615 17.9004 16.3398 18.123C16.2409 18.0983 16.1543 18.123 16.0801 18.1973C16.0059 18.2467 15.9316 18.2467 15.8574 18.1973C15.8079 18.2467 15.7214 18.2962 15.5977 18.3457C15.4987 18.3952 15.4245 18.4076 15.375 18.3828C15.276 18.5065 15.1276 18.5807 14.9297 18.6055C14.7565 18.6055 14.6328 18.6673 14.5586 18.791C14.3854 18.7663 14.2493 18.7786 14.1504 18.8281C14.0514 18.8776 13.9401 18.9271 13.8164 18.9766C13.6432 18.8034 13.5319 18.7168 13.4824 18.7168C13.4577 18.7168 13.4453 18.6921 13.4453 18.6426C13.4701 18.4694 13.569 18.2962 13.7422 18.123C13.7422 17.9993 13.7793 17.9128 13.8535 17.8633C13.9277 17.7891 13.9648 17.6901 13.9648 17.5664C14.0885 17.4922 14.1751 17.3932 14.2246 17.2695C14.2988 17.1211 14.4225 17.0345 14.5957 17.0098C14.8431 16.7376 15.0039 16.5768 15.0781 16.5273C15.1523 16.4779 15.2513 16.4284 15.375 16.3789C15.474 16.3789 15.5482 16.3913 15.5977 16.416C15.6719 16.4408 15.7461 16.4531 15.8203 16.4531C15.8698 16.4531 15.9316 16.4408 16.0059 16.416C16.1048 16.3913 16.179 16.3665 16.2285 16.3418C16.278 16.2923 16.3646 16.2676 16.4883 16.2676C16.612 16.2428 16.7233 16.2552 16.8223 16.3047C16.8717 16.2552 16.9336 16.2181 17.0078 16.1934C17.082 16.1686 17.1686 16.1315 17.2676 16.082C17.4408 15.9831 17.5645 15.9336 17.6387 15.9336C17.7376 15.9336 17.8366 15.9089 17.9355 15.8594C18.1335 15.8099 18.319 15.7728 18.4922 15.748C18.6654 15.7233 18.8262 15.6491 18.9746 15.5254C18.9251 15.4017 18.9251 15.2038 18.9746 14.9316C18.9746 14.8574 18.9622 14.7832 18.9375 14.709C18.9128 14.6348 18.9004 14.5729 18.9004 14.5234C18.9499 14.2513 18.9622 14.1029 18.9375 14.0781C18.9375 14.0534 18.9375 14.0163 18.9375 13.9668C18.9375 13.7194 18.9375 13.5586 18.9375 13.4844C18.9622 13.4102 18.9746 13.3483 18.9746 13.2988C18.9499 13.0762 18.9499 12.9648 18.9746 12.9648C18.9993 12.9401 19.0117 12.903 19.0117 12.8535C18.987 12.5814 18.9746 12.3958 18.9746 12.2969C18.9993 12.1979 19.0241 12.0866 19.0488 11.9629C19.0488 11.7897 19.0488 11.5918 19.0488 11.3691C19.0736 11.1465 19.1107 10.9609 19.1602 10.8125C19.1107 10.5651 19.123 10.429 19.1973 10.4043C19.1973 9.86003 19.222 9.52604 19.2715 9.40234C19.3457 9.20443 19.3704 9.08073 19.3457 9.03125C19.3457 8.98177 19.3581 8.93229 19.3828 8.88281C19.3581 8.58594 19.2715 8.46224 19.123 8.51172C18.9993 8.53646 18.9128 8.51172 18.8633 8.4375C18.6654 8.53646 18.5417 8.57357 18.4922 8.54883C18.4674 8.52409 18.4303 8.49935 18.3809 8.47461C18.3066 8.49935 18.2324 8.49935 18.1582 8.47461C18.084 8.42513 17.9974 8.40039 17.8984 8.40039C17.7995 8.37565 17.7005 8.37565 17.6016 8.40039C17.5273 8.42513 17.4408 8.4375 17.3418 8.4375C17.2428 8.4375 17.1439 8.42513 17.0449 8.40039C16.9707 8.35091 16.8965 8.35091 16.8223 8.40039C16.5254 8.32617 16.377 8.3138 16.377 8.36328C16.4017 8.38802 16.3893 8.40039 16.3398 8.40039C16.1419 8.35091 15.9564 8.37565 15.7832 8.47461C15.3626 8.37565 15.0163 8.30143 14.7441 8.25195C14.4967 8.17773 14.2246 8.14062 13.9277 8.14062C13.6556 8.04167 13.4577 7.99219 13.334 7.99219C13.235 7.99219 13.1361 7.99219 13.0371 7.99219C12.8392 7.86849 12.7279 7.81901 12.7031 7.84375C12.6784 7.86849 12.6413 7.89323 12.5918 7.91797C12.4434 7.86849 12.3073 7.83138 12.1836 7.80664C12.0599 7.7819 11.8991 7.7819 11.7012 7.80664C11.5527 7.80664 11.4167 7.79427 11.293 7.76953C11.194 7.72005 11.0703 7.67057 10.9219 7.62109C10.8477 7.59635 10.7611 7.59635 10.6621 7.62109C10.5632 7.62109 10.4518 7.60872 10.3281 7.58398C10.1055 7.53451 9.99414 7.52214 9.99414 7.54688C9.99414 7.54688 9.9694 7.54688 9.91992 7.54688C9.74674 7.4974 9.64779 7.48503 9.62305 7.50977C9.59831 7.53451 9.5612 7.53451 9.51172 7.50977C9.28906 7.46029 9.16536 7.44792 9.14062 7.47266C9.11589 7.47266 9.07878 7.47266 9.0293 7.47266C8.80664 7.47266 8.68294 7.47266 8.6582 7.47266C8.63346 7.44792 8.59635 7.42318 8.54688 7.39844C8.34896 7.39844 8.21289 7.38607 8.13867 7.36133C8.08919 7.33659 8.0026 7.32422 7.87891 7.32422C7.58203 7.39844 7.42122 7.39844 7.39648 7.32422C7.34701 7.3737 7.28516 7.38607 7.21094 7.36133C7.13672 7.33659 7.0625 7.32422 6.98828 7.32422C6.91406 7.34896 6.83984 7.38607 6.76562 7.43555C6.71615 7.46029 6.64193 7.43555 6.54297 7.36133C6.49349 7.41081 6.41927 7.43555 6.32031 7.43555C6.24609 7.43555 6.17188 7.43555 6.09766 7.43555C5.82552 7.46029 5.66471 7.47266 5.61523 7.47266C5.56576 7.47266 5.50391 7.48503 5.42969 7.50977C5.20703 7.63346 5.05859 7.69531 4.98438 7.69531C4.83594 7.79427 4.69987 7.85612 4.57617 7.88086C4.37826 7.95508 4.25456 8.01693 4.20508 8.06641C4.0319 8.16536 3.94531 8.26432 3.94531 8.36328C3.92057 8.4375 3.83398 8.46224 3.68555 8.4375C3.56185 8.58594 3.47526 8.69727 3.42578 8.77148C3.3763 8.82096 3.31445 8.87044 3.24023 8.91992C3.0918 9.01888 2.99284 9.0931 2.94336 9.14258C2.89388 9.19206 2.8444 9.24154 2.79492 9.29102C2.81966 9.38997 2.81966 9.48893 2.79492 9.58789C2.74544 9.66211 2.7207 9.72396 2.7207 9.77344C2.69596 9.97135 2.69596 10.0951 2.7207 10.1445C2.7207 10.194 2.73307 10.2559 2.75781 10.3301C2.73307 10.627 2.70833 10.7878 2.68359 10.8125C2.65885 10.8372 2.64648 10.8743 2.64648 10.9238C2.69596 11.196 2.7207 11.3444 2.7207 11.3691C2.69596 11.3939 2.68359 11.4186 2.68359 11.4434C2.78255 11.6413 2.83203 11.765 2.83203 11.8145C2.80729 11.8639 2.80729 11.9134 2.83203 11.9629L2.94336 12.5938L3.38867 13.2246ZM22.7598 6.24805C22.8587 6.24805 22.9453 6.23568 23.0195 6.21094C23.1185 6.1862 23.2051 6.19857 23.2793 6.24805C23.6257 6.17383 23.8607 6.13672 23.9844 6.13672C24.2812 6.13672 24.4915 6.12435 24.6152 6.09961C24.7389 6.05013 24.8626 6.01302 24.9863 5.98828C25.0605 5.96354 25.1966 5.95117 25.3945 5.95117C25.6667 5.95117 25.8398 5.9388 25.9141 5.91406C25.9883 5.86458 26.0872 5.83984 26.2109 5.83984C26.5573 5.79036 26.7428 5.76562 26.7676 5.76562C26.9902 5.74089 27.1387 5.72852 27.2129 5.72852C27.4355 5.62956 27.5469 5.59245 27.5469 5.61719C27.5716 5.61719 27.6087 5.60482 27.6582 5.58008C28.0046 5.43164 28.2767 5.34505 28.4746 5.32031C28.6725 5.27083 28.8581 5.18424 29.0312 5.06055C29.056 4.93685 29.0684 4.82552 29.0684 4.72656C29.0684 4.6276 29.0684 4.51628 29.0684 4.39258C28.9199 4.14518 28.7962 3.98438 28.6973 3.91016C28.623 3.83594 28.5488 3.74935 28.4746 3.65039C28.252 3.52669 28.1283 3.4401 28.1035 3.39062C28.0788 3.34115 28.0417 3.2793 27.9922 3.20508C27.8932 3.22982 27.819 3.21745 27.7695 3.16797C27.7201 3.11849 27.6458 3.08138 27.5469 3.05664C27.349 3.08138 27.2376 3.08138 27.2129 3.05664C27.1882 3.00716 27.151 2.99479 27.1016 3.01953C26.8294 2.97005 26.6068 2.98242 26.4336 3.05664C26.2604 3.13086 26.0749 3.13086 25.877 3.05664C25.679 3.1556 25.5306 3.20508 25.4316 3.20508C25.0605 3.32878 24.8255 3.45247 24.7266 3.57617C24.6523 3.67513 24.5163 3.73698 24.3184 3.76172C24.1452 3.95964 24.0586 4.07096 24.0586 4.0957C24.0586 4.12044 24.0339 4.14518 23.9844 4.16992C23.737 4.29362 23.6133 4.38021 23.6133 4.42969C23.6133 4.45443 23.6009 4.49154 23.5762 4.54102C23.304 4.63997 23.1556 4.81315 23.1309 5.06055C23.0566 5.11003 22.9824 5.14714 22.9082 5.17188C22.834 5.19661 22.7845 5.23372 22.7598 5.2832C22.6855 5.50586 22.599 5.66667 22.5 5.76562C22.4258 5.86458 22.3887 6.01302 22.3887 6.21094L22.7598 6.24805Z" fill="white"/>
<path d="M53.9688 7.06445C53.9935 7.31185 54.0182 7.46029 54.043 7.50977C54.0677 7.53451 54.0801 7.57161 54.0801 7.62109C54.0553 7.94271 54.0553 8.12826 54.0801 8.17773C54.1048 8.22721 54.1172 8.27669 54.1172 8.32617C54.0182 8.49935 53.9688 8.62305 53.9688 8.69727C53.9688 8.77148 53.944 8.82096 53.8945 8.8457C53.8698 8.99414 53.8327 9.0931 53.7832 9.14258C53.7337 9.16732 53.6719 9.19206 53.5977 9.2168C53.4987 9.31576 53.3997 9.42708 53.3008 9.55078C53.2266 9.64974 53.1276 9.72396 53.0039 9.77344C52.9049 10.0208 52.8184 10.1693 52.7441 10.2188C52.6947 10.2435 52.6823 10.3177 52.707 10.4414C52.6576 10.4909 52.5833 10.528 52.4844 10.5527C52.4102 10.5775 52.373 10.6393 52.373 10.7383C52.2246 10.7878 52.1257 10.8372 52.0762 10.8867C52.0267 10.9362 51.9896 11.0104 51.9648 11.1094C51.8164 11.1589 51.6927 11.3073 51.5938 11.5547C51.3958 11.5547 51.2721 11.5918 51.2227 11.666C51.1979 11.7155 51.1361 11.7155 51.0371 11.666C50.765 11.765 50.5671 11.765 50.4434 11.666C50.3444 11.5671 50.2702 11.4434 50.2207 11.2949C50.2454 11.196 50.2826 11.1341 50.332 11.1094C50.4062 11.0599 50.4434 10.9733 50.4434 10.8496C50.5918 10.6517 50.7155 10.5404 50.8145 10.5156C50.9134 10.4909 50.9629 10.429 50.9629 10.3301C51.0618 10.1816 51.1361 10.1074 51.1855 10.1074C51.2598 10.0827 51.3092 10.0456 51.334 9.99609C51.4577 9.67448 51.5319 9.48893 51.5566 9.43945C51.5814 9.36523 51.5938 9.29102 51.5938 9.2168C51.569 8.91992 51.4577 8.67253 51.2598 8.47461C51.1361 8.17773 51.0618 7.95508 51.0371 7.80664C51.0124 7.6582 50.9382 7.54688 50.8145 7.47266C50.7402 7.27474 50.6784 7.16341 50.6289 7.13867C50.5794 7.08919 50.5052 7.05208 50.4062 7.02734C50.2083 6.75521 50.0599 6.58203 49.9609 6.50781C49.8867 6.40885 49.7878 6.33464 49.6641 6.28516C49.4661 6.08724 49.3424 5.97591 49.293 5.95117C49.2682 5.90169 49.2188 5.85221 49.1445 5.80273C48.8724 5.75326 48.724 5.70378 48.6992 5.6543C48.6745 5.60482 48.6374 5.59245 48.5879 5.61719C48.3405 5.49349 48.1549 5.4069 48.0312 5.35742C47.9076 5.2832 47.7839 5.20898 47.6602 5.13477C47.5612 5.15951 47.487 5.15951 47.4375 5.13477C47.388 5.08529 47.3138 5.07292 47.2148 5.09766C46.9922 4.97396 46.8685 4.92448 46.8438 4.94922C46.819 4.97396 46.7819 4.98633 46.7324 4.98633C46.6335 4.88737 46.485 4.83789 46.2871 4.83789C46.1139 4.81315 45.9531 4.81315 45.8047 4.83789C45.681 4.88737 45.5449 4.89974 45.3965 4.875C45.248 4.82552 45.1243 4.85026 45.0254 4.94922C44.8027 4.92448 44.6543 4.92448 44.5801 4.94922C44.5306 4.97396 44.4811 5.01107 44.4316 5.06055C44.209 5.08529 44.0234 5.11003 43.875 5.13477C43.7266 5.15951 43.6152 5.20898 43.541 5.2832C43.2194 5.33268 43.0091 5.39453 42.9102 5.46875C42.8112 5.51823 42.6875 5.55534 42.5391 5.58008C42.4896 5.6543 42.403 5.71615 42.2793 5.76562C42.1803 5.8151 42.0938 5.83984 42.0195 5.83984C41.8216 5.9388 41.6979 6.02539 41.6484 6.09961C41.6237 6.14909 41.5618 6.17383 41.4629 6.17383L41.2031 6.61914C40.9557 6.8418 40.7949 7.0026 40.7207 7.10156C40.696 7.15104 40.6465 7.21289 40.5723 7.28711C40.5228 7.33659 40.4733 7.39844 40.4238 7.47266C40.3991 7.67057 40.3372 7.85612 40.2383 8.0293C40.1393 8.17773 40.0775 8.37565 40.0527 8.62305C40.1517 8.8457 40.2012 8.98177 40.2012 9.03125C40.2259 9.05599 40.2259 9.0931 40.2012 9.14258C40.2754 9.24154 40.3125 9.3776 40.3125 9.55078C40.3372 9.69922 40.3743 9.82292 40.4238 9.92188C40.3991 10.0951 40.4238 10.194 40.498 10.2188C40.5723 10.2435 40.6094 10.3177 40.6094 10.4414C40.7331 10.6888 40.8444 10.8372 40.9434 10.8867C41.0671 10.9115 41.1413 10.998 41.166 11.1465C41.265 11.196 41.3392 11.2702 41.3887 11.3691C41.4382 11.4434 41.5247 11.4928 41.6484 11.5176C41.6979 11.6908 41.7598 11.7773 41.834 11.7773C41.9329 11.7773 41.9824 11.8268 41.9824 11.9258C42.2298 12 42.3783 12.0618 42.4277 12.1113C42.4772 12.1608 42.5267 12.2103 42.5762 12.2598C42.6504 12.235 42.7246 12.2227 42.7988 12.2227C42.8978 12.2227 42.9596 12.1855 42.9844 12.1113C43.0586 12.1608 43.1452 12.1855 43.2441 12.1855C43.3678 12.1608 43.4792 12.1361 43.5781 12.1113C44.0234 12.1608 44.3822 12.1484 44.6543 12.0742C44.8522 12.0495 44.9635 12.0495 44.9883 12.0742C45.0378 12.099 45.0872 12.1237 45.1367 12.1484C45.3346 12.1484 45.4583 12.1732 45.5078 12.2227C45.582 12.2474 45.6191 12.235 45.6191 12.1855C45.8418 12.2103 46.0026 12.235 46.1016 12.2598C46.2005 12.2598 46.2747 12.235 46.3242 12.1855C46.4727 12.235 46.6211 12.2721 46.7695 12.2969C46.9427 12.3216 47.054 12.3958 47.1035 12.5195C47.2025 12.4701 47.2767 12.4577 47.3262 12.4824C47.3757 12.5072 47.4375 12.5443 47.5117 12.5938C47.5117 12.9154 47.5365 13.0885 47.5859 13.1133C47.6602 13.138 47.6849 13.1999 47.6602 13.2988C47.487 13.3978 47.3633 13.472 47.2891 13.5215C47.2396 13.5462 47.1901 13.5833 47.1406 13.6328C46.9427 13.8307 46.8066 13.9421 46.7324 13.9668C46.6829 13.9668 46.6211 13.9668 46.5469 13.9668C46.4974 14.0163 46.4355 14.0658 46.3613 14.1152C46.3118 14.14 46.2624 14.1771 46.2129 14.2266C46.0892 14.2018 46.0026 14.2266 45.9531 14.3008C45.9284 14.375 45.8789 14.4245 45.8047 14.4492C45.7057 14.4245 45.5944 14.4121 45.4707 14.4121C45.3717 14.3874 45.2852 14.3379 45.2109 14.2637C45.013 14.3874 44.8151 14.4616 44.6172 14.4863C44.444 14.5111 44.2585 14.5729 44.0605 14.6719C43.8132 14.6224 43.6771 14.6224 43.6523 14.6719C43.6523 14.6966 43.6276 14.7214 43.5781 14.7461C43.4049 14.6966 43.2441 14.6842 43.0957 14.709C42.972 14.709 42.8483 14.709 42.7246 14.709C42.502 14.6842 42.3659 14.6719 42.3164 14.6719C42.2174 14.6471 42.1185 14.6348 42.0195 14.6348C41.9206 14.6348 41.8464 14.5977 41.7969 14.5234C41.6732 14.5482 41.5742 14.5729 41.5 14.5977C41.4505 14.5977 41.3887 14.5729 41.3145 14.5234C41.1908 14.5977 41.0423 14.6348 40.8691 14.6348C40.7207 14.61 40.5846 14.6471 40.4609 14.7461C40.3125 14.7214 40.2135 14.7337 40.1641 14.7832C40.1146 14.8327 40.0651 14.8822 40.0156 14.9316C39.694 14.9316 39.4342 14.9935 39.2363 15.1172C39.0384 15.2409 38.9271 15.3275 38.9023 15.377C38.9023 15.4017 38.8776 15.4141 38.8281 15.4141C38.6055 15.4883 38.4323 15.5501 38.3086 15.5996C38.2096 15.6491 38.0983 15.6986 37.9746 15.748C37.8509 15.7728 37.7396 15.8223 37.6406 15.8965C37.5417 15.946 37.4674 16.0326 37.418 16.1562C37.319 16.2057 37.2324 16.2428 37.1582 16.2676C37.084 16.2923 37.0221 16.3418 36.9727 16.416C36.849 16.416 36.7747 16.4408 36.75 16.4902C36.7253 16.5397 36.6634 16.5768 36.5645 16.6016C36.515 16.7253 36.4284 16.8366 36.3047 16.9355C36.181 17.0345 36.0449 17.084 35.8965 17.084C35.7728 17.1335 35.6738 17.1953 35.5996 17.2695C35.5254 17.3438 35.4141 17.3932 35.2656 17.418C35.1667 17.6654 35.0677 17.7643 34.9688 17.7148C34.7214 17.888 34.5605 18.0117 34.4863 18.0859C34.4368 18.1602 34.4121 18.2344 34.4121 18.3086C34.2637 18.3333 34.14 18.4199 34.041 18.5684C33.9173 18.5684 33.8307 18.6055 33.7812 18.6797C33.7318 18.7539 33.6699 18.8158 33.5957 18.8652C33.5215 19.0137 33.472 19.125 33.4473 19.1992C33.4225 19.2487 33.373 19.2734 33.2988 19.2734C33.2988 19.3724 33.2617 19.4466 33.1875 19.4961C33.138 19.5456 33.1133 19.6198 33.1133 19.7188C32.7917 19.9414 32.6061 20.127 32.5566 20.2754C32.5072 20.3991 32.4082 20.4857 32.2598 20.5352C32.1855 20.8073 32.1113 20.9928 32.0371 21.0918C31.9876 21.166 31.9505 21.2773 31.9258 21.4258C31.8268 21.5742 31.7402 21.6855 31.666 21.7598C31.6165 21.834 31.5547 21.9082 31.4805 21.9824C31.431 22.1556 31.4062 22.2669 31.4062 22.3164C31.431 22.3411 31.431 22.3783 31.4062 22.4277C31.3815 22.502 31.332 22.5762 31.2578 22.6504C31.2083 22.6999 31.196 22.7617 31.2207 22.8359C31.1217 23.2318 30.998 23.5039 30.8496 23.6523C30.7012 23.8008 30.6517 24.0234 30.7012 24.3203C30.5033 24.5677 30.4043 24.7533 30.4043 24.877C30.429 24.9759 30.4167 25.0872 30.3672 25.2109C30.293 25.4089 30.2559 25.5573 30.2559 25.6562C30.2559 25.7552 30.2435 25.8542 30.2188 25.9531C30.1693 26.2747 30.1322 26.4727 30.1074 26.5469C30.0827 26.5964 30.0703 26.6582 30.0703 26.7324C30.0951 26.7819 30.0951 26.8561 30.0703 26.9551C30.0456 27.054 30.0332 27.1283 30.0332 27.1777C30.0085 27.4004 29.9961 27.5612 29.9961 27.6602C30.0208 27.7344 30.0332 27.8086 30.0332 27.8828C30.0332 28.056 30.0456 28.1797 30.0703 28.2539C30.0951 28.3034 30.1074 28.3529 30.1074 28.4023C30.0827 28.6003 30.0827 28.7487 30.1074 28.8477C30.1322 28.9466 30.1198 29.0332 30.0703 29.1074C30.194 29.429 30.2435 29.6641 30.2188 29.8125C30.2188 29.9609 30.2435 30.1341 30.293 30.332C30.3177 30.5794 30.3424 30.7402 30.3672 30.8145C30.4167 30.8887 30.4538 30.9629 30.4785 31.0371C30.5527 31.235 30.5775 31.334 30.5527 31.334C30.528 31.3587 30.5156 31.3958 30.5156 31.4453C30.5651 31.6185 30.6393 31.7546 30.7383 31.8535C30.7878 32.1009 30.8249 32.2246 30.8496 32.2246C30.8743 32.2493 30.8991 32.2865 30.9238 32.3359C30.8743 32.8555 31.0104 33.1647 31.332 33.2637C31.2826 33.4616 31.2826 33.5853 31.332 33.6348C31.3815 33.6842 31.4186 33.7337 31.4434 33.7832C31.5176 33.9811 31.5671 34.1048 31.5918 34.1543C31.6413 34.2285 31.6784 34.3027 31.7031 34.377C31.8021 34.6491 31.8763 34.8099 31.9258 34.8594C32 34.9089 32.0495 34.9954 32.0742 35.1191C32.1979 35.2676 32.2721 35.3542 32.2969 35.3789C32.3464 35.4036 32.3835 35.4408 32.4082 35.4902C32.5319 35.6882 32.6309 35.8118 32.7051 35.8613C32.7793 35.9108 32.8411 35.9727 32.8906 36.0469C32.9401 36.0964 32.9896 36.1458 33.0391 36.1953C33.0885 36.2695 33.138 36.3314 33.1875 36.3809C33.4102 36.554 33.5339 36.653 33.5586 36.6777C33.6081 36.9499 33.7318 37.0859 33.9297 37.0859C34.1029 37.2839 34.1895 37.3952 34.1895 37.4199C34.2142 37.4694 34.2513 37.5189 34.3008 37.5684C34.474 37.6921 34.5853 37.7663 34.6348 37.791C34.6842 37.8405 34.7461 37.8652 34.8203 37.8652C34.9193 37.9642 34.9811 38.026 35.0059 38.0508C35.0306 38.1003 35.0801 38.1621 35.1543 38.2363C35.2038 38.2858 35.278 38.3229 35.377 38.3477C35.4759 38.3724 35.5501 38.4095 35.5996 38.459C35.8965 38.6816 36.0944 38.793 36.1934 38.793C36.2923 38.8177 36.3665 38.8672 36.416 38.9414C36.7129 39.0651 36.9108 39.1146 37.0098 39.0898C37.1335 39.0898 37.2448 39.1022 37.3438 39.127C37.4427 39.127 37.5293 39.1517 37.6035 39.2012C37.6777 39.2754 37.7643 39.2878 37.8633 39.2383C37.9128 39.3372 38.0117 39.3743 38.1602 39.3496C38.3086 39.3496 38.4076 39.3867 38.457 39.4609C38.6549 39.4362 38.8158 39.4486 38.9395 39.498C39.0632 39.5475 39.2116 39.6094 39.3848 39.6836C39.6074 39.6589 39.8177 39.6341 40.0156 39.6094C40.1146 39.6094 40.2012 39.6217 40.2754 39.6465C40.3496 39.6712 40.4238 39.6836 40.498 39.6836C40.696 39.6341 40.832 39.6094 40.9062 39.6094C41.1536 39.6341 41.3516 39.6341 41.5 39.6094C41.6484 39.5846 41.8092 39.5599 41.9824 39.5352C42.1803 39.5599 42.2917 39.5599 42.3164 39.5352C42.3659 39.5352 42.4154 39.5228 42.4648 39.498C42.6628 39.498 42.7988 39.4857 42.873 39.4609C43.1204 39.3867 43.2565 39.3496 43.2812 39.3496C43.3307 39.3743 43.3802 39.3867 43.4297 39.3867C43.5286 39.3867 43.6152 39.362 43.6895 39.3125C43.7884 39.2878 43.8874 39.263 43.9863 39.2383C44.1348 39.2135 44.2832 39.2012 44.4316 39.2012C44.5801 39.2259 44.7409 39.2135 44.9141 39.1641C45.0872 39.1146 45.1862 39.0898 45.2109 39.0898C45.2604 39.1146 45.3099 39.1146 45.3594 39.0898C45.6068 39.0156 45.7799 38.9538 45.8789 38.9043C45.9531 38.8796 46.0273 38.8672 46.1016 38.8672C46.1758 38.8672 46.25 38.8548 46.3242 38.8301C46.4727 38.8053 46.6211 38.7435 46.7695 38.6445C46.8438 38.5951 46.918 38.5579 46.9922 38.5332C47.0911 38.5332 47.1654 38.5208 47.2148 38.4961C47.487 38.3724 47.6478 38.3105 47.6973 38.3105C47.7467 38.3353 47.821 38.3229 47.9199 38.2734C48.1426 38.1497 48.3158 38.0384 48.4395 37.9395C48.5632 37.8652 48.6868 37.7786 48.8105 37.6797C48.9342 37.5807 49.0579 37.4941 49.1816 37.4199C49.3301 37.3457 49.4661 37.2591 49.5898 37.1602C49.6641 37.1107 49.7259 37.0488 49.7754 36.9746C49.8496 36.9251 49.9238 36.8757 49.998 36.8262C50.0475 36.7767 50.1094 36.7272 50.1836 36.6777C50.2578 36.6283 50.2949 36.5417 50.2949 36.418C50.5671 36.1211 50.8021 35.8984 51 35.75C51.0247 35.651 51.0495 35.5521 51.0742 35.4531C51.1237 35.3542 51.2103 35.2923 51.334 35.2676C51.3835 35.1439 51.4206 34.9954 51.4453 34.8223C51.4701 34.6738 51.5443 34.5625 51.668 34.4883C51.8659 34.2409 51.9772 34.0801 52.002 34.0059C52.0267 33.9316 52.0885 33.8822 52.1875 33.8574C52.1875 33.6842 52.2122 33.5482 52.2617 33.4492C52.3112 33.3503 52.3607 33.2389 52.4102 33.1152C52.4844 33.0163 52.5339 32.9421 52.5586 32.8926C52.6081 32.8431 52.6204 32.7689 52.5957 32.6699C52.7441 32.4473 52.8555 32.2741 52.9297 32.1504C52.9297 31.9277 52.9297 31.7917 52.9297 31.7422C52.9544 31.6927 52.9792 31.6556 53.0039 31.6309C53.0286 31.334 53.041 31.1237 53.041 31C53.0658 30.8763 53.1152 30.7897 53.1895 30.7402C53.14 30.6413 53.1523 30.5547 53.2266 30.4805C53.3008 30.3815 53.3626 30.3073 53.4121 30.2578C53.3874 30.0104 53.375 29.8372 53.375 29.7383C53.3997 29.6393 53.4368 29.5651 53.4863 29.5156C53.4368 29.293 53.4245 29.1693 53.4492 29.1445C53.474 29.0951 53.4987 29.0456 53.5234 28.9961C53.4987 28.6992 53.5111 28.5508 53.5605 28.5508C53.61 28.526 53.6224 28.4766 53.5977 28.4023C53.474 28.1549 53.375 27.9694 53.3008 27.8457C53.2513 27.6973 53.2513 27.5612 53.3008 27.4375C53.276 27.1159 53.2266 26.9303 53.1523 26.8809C53.1029 26.8066 53.1029 26.7324 53.1523 26.6582C53.0781 26.4355 53.0286 26.2995 53.0039 26.25C52.9792 26.2005 52.9915 26.1758 53.041 26.1758C52.7689 26.0026 52.6947 25.681 52.8184 25.2109C52.6947 25.1367 52.5833 25.0625 52.4844 24.9883C52.3854 24.8893 52.3112 24.7656 52.2617 24.6172C52.1133 24.4935 52.0143 24.3574 51.9648 24.209C51.9154 24.1595 51.8535 24.0977 51.7793 24.0234C51.7298 23.9492 51.668 23.8874 51.5938 23.8379C51.5443 23.7142 51.4948 23.6523 51.4453 23.6523C51.3958 23.6276 51.3464 23.5905 51.2969 23.541C51.2969 23.3926 51.2598 23.306 51.1855 23.2812C51.1361 23.2565 51.099 23.2194 51.0742 23.1699C50.901 23.0957 50.765 23.0339 50.666 22.9844C50.5918 22.9102 50.5052 22.8483 50.4062 22.7988C50.2578 22.6751 50.1712 22.5762 50.1465 22.502C50.1465 22.4277 50.0846 22.403 49.9609 22.4277C49.763 22.2793 49.627 22.1803 49.5527 22.1309C49.5033 22.0814 49.4538 22.0319 49.4043 21.9824C49.2064 21.9082 49.0208 21.8464 48.8477 21.7969L48.3281 21.6484C48.2044 21.599 48.1178 21.5618 48.0684 21.5371C48.0189 21.4876 47.9694 21.4629 47.9199 21.4629C47.6725 21.3887 47.5241 21.3763 47.4746 21.4258C47.4004 21.3763 47.3385 21.3392 47.2891 21.3145C47.2396 21.2897 47.1654 21.265 47.0664 21.2402C46.819 21.2402 46.6706 21.2402 46.6211 21.2402C46.5716 21.2402 46.5221 21.2155 46.4727 21.166C46.3737 21.2155 46.2871 21.2402 46.2129 21.2402C46.1634 21.2155 46.0768 21.2279 45.9531 21.2773C45.7057 21.3021 45.5697 21.3268 45.5449 21.3516C45.5449 21.3516 45.5326 21.3516 45.5078 21.3516C45.4336 21.3516 45.3223 21.3516 45.1738 21.3516C45.0501 21.3268 44.9264 21.3392 44.8027 21.3887C44.5553 21.4629 44.3822 21.5 44.2832 21.5C44.1842 21.5 44.0977 21.5495 44.0234 21.6484C43.8997 21.6237 43.8008 21.6361 43.7266 21.6855C43.6771 21.735 43.6152 21.735 43.541 21.6855C43.4173 21.735 43.2936 21.7969 43.1699 21.8711C43.071 21.9206 42.9596 21.9329 42.8359 21.9082C42.638 21.9577 42.5143 21.9948 42.4648 22.0195C42.4401 22.0195 42.3783 22.0443 42.2793 22.0938C42.2051 22.1432 42.1309 22.1803 42.0566 22.2051C42.0072 22.2298 41.9453 22.2669 41.8711 22.3164C41.5742 22.4648 41.3516 22.5391 41.2031 22.5391C41.1042 22.5885 41.0299 22.6628 40.9805 22.7617C40.931 22.8607 40.8444 22.9225 40.7207 22.9473C40.6712 22.9967 40.6217 23.0586 40.5723 23.1328C40.5475 23.207 40.4733 23.2689 40.3496 23.3184C40.2012 23.541 40.1022 23.6771 40.0527 23.7266C40.028 23.7513 39.9909 23.7637 39.9414 23.7637C39.9909 23.8874 39.9785 23.9863 39.9043 24.0605C39.8548 24.11 39.8548 24.1595 39.9043 24.209C39.7559 24.4069 39.6569 24.5801 39.6074 24.7285C39.5579 24.8522 39.4961 24.9883 39.4219 25.1367C39.3724 25.2852 39.3353 25.4336 39.3105 25.582C39.3105 25.7057 39.3353 25.8294 39.3848 25.9531C39.2611 26.25 39.224 26.4727 39.2734 26.6211C39.3229 26.7448 39.3229 26.8685 39.2734 26.9922C39.2982 27.0911 39.3353 27.1901 39.3848 27.2891C39.4342 27.3633 39.4342 27.4499 39.3848 27.5488C39.4095 27.7467 39.4342 27.8952 39.459 27.9941C39.4837 28.0684 39.4961 28.1426 39.4961 28.2168C39.6693 28.7116 39.8301 29.0208 39.9785 29.1445C40.127 29.2435 40.2507 29.3796 40.3496 29.5527C40.5475 29.6517 40.6712 29.7754 40.7207 29.9238C40.9434 30.0228 41.0794 30.0723 41.1289 30.0723C41.1784 30.0723 41.2279 30.097 41.2773 30.1465C41.5247 30.3197 41.7227 30.4062 41.8711 30.4062C42.0195 30.3815 42.1556 30.3815 42.2793 30.4062C42.403 30.431 42.502 30.4557 42.5762 30.4805C42.6751 30.5052 42.7617 30.5299 42.8359 30.5547C43.1328 30.4805 43.2936 30.4557 43.3184 30.4805C43.3678 30.4805 43.4173 30.4805 43.4668 30.4805C43.5163 30.4805 43.5781 30.4681 43.6523 30.4434C43.7266 30.4186 43.8008 30.3939 43.875 30.3691C44.1471 30.3444 44.3203 30.3197 44.3945 30.2949C44.4935 30.2454 44.5801 30.2454 44.6543 30.2949C44.7285 30.2454 44.8151 30.196 44.9141 30.1465C45.0378 30.097 45.1243 30.1341 45.1738 30.2578C45.0007 30.431 44.8646 30.5176 44.7656 30.5176C44.6172 30.666 44.5306 30.7402 44.5059 30.7402C44.5059 30.7402 44.4935 30.765 44.4688 30.8145L43.9121 30.9258C43.6647 31.099 43.5163 31.1855 43.4668 31.1855C43.4173 31.2103 43.3678 31.2474 43.3184 31.2969C43.0957 31.3711 42.9596 31.4206 42.9102 31.4453C42.8607 31.4948 42.8112 31.5443 42.7617 31.5938C42.638 31.5443 42.5514 31.5319 42.502 31.5566C42.4525 31.5814 42.3659 31.6061 42.2422 31.6309C41.9453 31.6803 41.7103 31.7051 41.5371 31.7051C41.3145 31.804 41.166 31.8659 41.0918 31.8906C41.0176 31.9154 40.9186 31.903 40.7949 31.8535C40.5228 31.903 40.3372 31.903 40.2383 31.8535C40.0651 31.903 39.9538 31.9154 39.9043 31.8906C39.8548 31.8659 39.793 31.8659 39.7188 31.8906C39.4714 31.7669 39.3105 31.668 39.2363 31.5938C38.9395 31.5195 38.7415 31.4453 38.6426 31.3711C38.4199 31.2969 38.2715 31.235 38.1973 31.1855C38.1478 31.0618 38.0859 30.9629 38.0117 30.8887C37.9375 30.8145 37.8633 30.7155 37.7891 30.5918C37.6159 30.3939 37.5169 30.3197 37.4922 30.3691C37.4674 30.3939 37.4303 30.3939 37.3809 30.3691C37.2077 30.097 37.0964 29.9362 37.0469 29.8867C37.0221 29.8125 37.0098 29.7383 37.0098 29.6641C37.0098 29.3919 36.9232 29.2188 36.75 29.1445C36.75 28.9961 36.7376 28.8477 36.7129 28.6992C36.7129 28.526 36.6634 28.39 36.5645 28.291C36.6139 28.1921 36.6263 28.1055 36.6016 28.0312C36.5768 27.957 36.5892 27.8828 36.6387 27.8086C36.5892 27.5859 36.5768 27.4622 36.6016 27.4375C36.6263 27.388 36.651 27.3385 36.6758 27.2891C36.6263 27.1654 36.6263 27.0664 36.6758 26.9922C36.7253 26.8932 36.7376 26.7695 36.7129 26.6211C36.8366 26.4974 36.8984 26.3366 36.8984 26.1387C36.9974 26.0397 37.0592 25.9284 37.084 25.8047C37.1335 25.681 37.1829 25.5449 37.2324 25.3965C37.2572 25.2975 37.2943 25.2357 37.3438 25.2109C37.3932 25.1615 37.4303 25.0872 37.4551 24.9883C37.5046 24.9388 37.554 24.8893 37.6035 24.8398C37.6777 24.7656 37.7148 24.6667 37.7148 24.543C37.8138 24.3698 37.9004 24.2708 37.9746 24.2461C38.0488 24.1966 38.0859 24.11 38.0859 23.9863C38.2591 23.7389 38.3952 23.5781 38.4941 23.5039C38.6178 23.4297 38.6921 23.3307 38.7168 23.207C38.9147 23.1328 39.0632 23.0091 39.1621 22.8359C39.2611 22.638 39.4095 22.4896 39.6074 22.3906C39.6569 22.3411 39.694 22.2793 39.7188 22.2051C39.7435 22.1309 39.8053 22.0938 39.9043 22.0938C39.9043 21.9948 39.929 21.9329 39.9785 21.9082C40.0527 21.8835 40.1146 21.834 40.1641 21.7598C40.4857 21.6113 40.7083 21.5 40.832 21.4258C40.9805 21.3516 41.1165 21.2526 41.2402 21.1289C41.4134 21.1042 41.5 21.0671 41.5 21.0176C41.5247 20.9681 41.5618 20.9186 41.6113 20.8691C41.8092 20.8444 41.9206 20.8197 41.9453 20.7949C41.9701 20.7702 41.9824 20.7207 41.9824 20.6465C42.1803 20.597 42.304 20.5599 42.3535 20.5352C42.403 20.5104 42.4525 20.4857 42.502 20.4609C42.6999 20.4115 42.8978 20.3372 43.0957 20.2383C43.3184 20.1641 43.4421 20.1393 43.4668 20.1641C43.4915 20.1641 43.5286 20.1517 43.5781 20.127C43.6276 20.1022 43.6771 20.0775 43.7266 20.0527C43.8008 20.028 43.875 19.9909 43.9492 19.9414C44.2214 19.8672 44.3822 19.8301 44.4316 19.8301C44.4811 19.8053 44.5553 19.7682 44.6543 19.7188L45.1367 19.6074C45.2604 19.5827 45.3717 19.5579 45.4707 19.5332C45.5697 19.4837 45.6562 19.4837 45.7305 19.5332C45.7799 19.4837 45.8294 19.4466 45.8789 19.4219C45.9531 19.3724 46.015 19.3229 46.0645 19.2734C46.1634 19.3229 46.2747 19.3353 46.3984 19.3105C46.5469 19.2858 46.6458 19.2487 46.6953 19.1992C46.9674 19.1745 47.1159 19.1745 47.1406 19.1992C47.1901 19.1992 47.2272 19.1992 47.252 19.1992C47.5488 19.0755 47.6973 19.0384 47.6973 19.0879C47.6973 19.1374 47.722 19.1621 47.7715 19.1621C48.0684 19.0384 48.3529 19.0384 48.625 19.1621C48.7982 19.1868 48.959 19.1868 49.1074 19.1621C49.2559 19.1374 49.3796 19.1745 49.4785 19.2734C49.7259 19.3724 49.9238 19.4219 50.0723 19.4219C50.2454 19.4219 50.3568 19.4837 50.4062 19.6074C50.5547 19.6322 50.666 19.6693 50.7402 19.7188C50.8392 19.7435 50.9258 19.7682 51 19.793C51.2227 19.8919 51.3587 19.9538 51.4082 19.9785C51.4577 20.0033 51.4701 20.0404 51.4453 20.0898C51.668 20.1641 51.8288 20.2878 51.9277 20.4609C52.1504 20.6094 52.2617 20.696 52.2617 20.7207C52.2865 20.7454 52.3236 20.7578 52.373 20.7578C52.8678 21.1289 53.2389 21.4629 53.4863 21.7598C53.709 21.9329 53.8327 22.0195 53.8574 22.0195C53.9316 22.2174 54.0059 22.3288 54.0801 22.3535C54.1543 22.3535 54.1667 22.4154 54.1172 22.5391C54.2904 22.7617 54.4635 22.8854 54.6367 22.9102C54.6615 23.1576 54.748 23.3184 54.8965 23.3926C54.946 23.4915 54.9831 23.5905 55.0078 23.6895C55.0326 23.7884 55.082 23.875 55.1562 23.9492C55.1562 24.0729 55.181 24.1719 55.2305 24.2461C55.2799 24.3203 55.3294 24.3945 55.3789 24.4688C55.4036 24.5677 55.416 24.6667 55.416 24.7656C55.416 24.8398 55.4284 24.9141 55.4531 24.9883C55.5768 25.2604 55.6263 25.4212 55.6016 25.4707C55.6016 25.4954 55.6016 25.5326 55.6016 25.582C55.6758 25.7552 55.7129 25.8789 55.7129 25.9531C55.7129 26.0026 55.7253 26.0645 55.75 26.1387C55.75 26.2376 55.7624 26.3242 55.7871 26.3984C55.8118 26.4727 55.8118 26.5716 55.7871 26.6953C55.8366 26.918 55.8737 27.0911 55.8984 27.2148C55.9479 27.3138 55.9479 27.388 55.8984 27.4375C55.9232 27.6354 55.9355 27.7591 55.9355 27.8086C55.9603 27.8333 55.9479 27.8704 55.8984 27.9199C55.8984 28.1673 55.8984 28.3652 55.8984 28.5137C55.9232 28.6374 55.8861 28.724 55.7871 28.7734C55.8118 28.9219 55.7871 29.0332 55.7129 29.1074C55.6634 29.1816 55.6387 29.293 55.6387 29.4414C55.5397 29.6393 55.4902 29.7754 55.4902 29.8496C55.515 29.9238 55.4902 29.9609 55.416 29.9609C55.4408 30.1341 55.4531 30.2578 55.4531 30.332C55.4531 30.4062 55.4408 30.4681 55.416 30.5176C55.3418 30.7897 55.3171 30.9258 55.3418 30.9258C55.2676 31.2474 55.1934 31.4453 55.1191 31.5195C55.0449 31.5938 55.0202 31.7174 55.0449 31.8906C54.9212 32.138 54.8223 32.2741 54.748 32.2988C54.6986 32.3236 54.6986 32.373 54.748 32.4473C54.5501 32.7936 54.4017 33.0039 54.3027 33.0781C54.2038 33.1771 54.1296 33.3008 54.0801 33.4492C53.9564 33.6719 53.8574 33.7956 53.7832 33.8203C53.7337 33.8698 53.6966 33.9193 53.6719 33.9688L53.4121 34.4883C53.3379 34.5625 53.276 34.6491 53.2266 34.748C53.1771 34.847 53.1152 34.946 53.041 35.0449C53.0905 35.1934 53.0781 35.3171 53.0039 35.416C52.9544 35.5397 52.9049 35.6634 52.8555 35.7871C52.7318 35.8366 52.6204 35.9108 52.5215 36.0098C52.4473 36.1087 52.3483 36.1829 52.2246 36.2324C52.0514 36.3809 51.903 36.5046 51.7793 36.6035C51.6803 36.7025 51.5938 36.8138 51.5195 36.9375C51.3958 37.0365 51.2721 37.123 51.1484 37.1973C51.0495 37.2715 50.9629 37.3704 50.8887 37.4941C50.4928 37.6178 50.2826 37.791 50.2578 38.0137C50.0104 38.1621 49.8496 38.2487 49.7754 38.2734C49.7259 38.3229 49.6517 38.3724 49.5527 38.4219C49.3053 38.5456 49.1693 38.6198 49.1445 38.6445C49.1445 38.694 49.1074 38.7064 49.0332 38.6816C48.7611 38.8053 48.5755 38.9414 48.4766 39.0898C48.3529 39.0898 48.2539 39.1146 48.1797 39.1641C48.1055 39.2383 48.0436 39.3125 47.9941 39.3867C47.8704 39.4362 47.7344 39.4857 47.5859 39.5352C47.4622 39.5846 47.3509 39.6712 47.252 39.7949C46.9551 39.8197 46.7572 39.8815 46.6582 39.9805C46.4108 40.0052 46.2129 40.0671 46.0645 40.166C45.9408 40.265 45.7676 40.3145 45.5449 40.3145C45.2975 40.3639 45.0996 40.401 44.9512 40.4258L44.5059 40.5742C44.1842 40.7227 43.9368 40.7845 43.7637 40.7598C43.6152 40.7598 43.5039 40.8216 43.4297 40.9453C43.1081 40.9206 42.8978 40.9206 42.7988 40.9453C42.7246 40.9948 42.6257 41.0072 42.502 40.9824C42.1309 41.0566 41.8835 41.1061 41.7598 41.1309C41.6361 41.1803 41.5247 41.168 41.4258 41.0938C41.1536 41.2422 40.9557 41.2917 40.832 41.2422C40.7331 41.2174 40.6465 41.2422 40.5723 41.3164C40.3743 41.2669 40.2507 41.2546 40.2012 41.2793C40.1517 41.3288 40.1022 41.3659 40.0527 41.3906C39.8796 41.3906 39.7435 41.3906 39.6445 41.3906C39.5703 41.4154 39.4714 41.403 39.3477 41.3535C39.0755 41.4772 38.9147 41.5143 38.8652 41.4648C38.8405 41.4401 38.8034 41.4154 38.7539 41.3906C38.457 41.4154 38.2715 41.4401 38.1973 41.4648C38.1478 41.5143 38.0859 41.502 38.0117 41.4277C37.7396 41.4772 37.5664 41.4896 37.4922 41.4648C37.4427 41.4401 37.3809 41.4154 37.3066 41.3906C37.2077 41.3906 37.0964 41.403 36.9727 41.4277C36.8737 41.4525 36.7747 41.4401 36.6758 41.3906C36.5026 41.2917 36.3418 41.2422 36.1934 41.2422C35.8965 41.1432 35.7109 41.0938 35.6367 41.0938C35.5625 41.1185 35.4883 41.1185 35.4141 41.0938C35.1172 40.9701 34.9069 40.9206 34.7832 40.9453C34.6842 40.9701 34.5605 40.9701 34.4121 40.9453C34.2389 40.7969 34.1276 40.7103 34.0781 40.6855C34.0286 40.6855 34.0163 40.6608 34.041 40.6113C33.7936 40.5124 33.6204 40.4382 33.5215 40.3887C33.4225 40.3639 33.3483 40.3145 33.2988 40.2402C33.1257 40.166 33.0143 40.1165 32.9648 40.0918C32.9154 40.0671 32.8783 40.0423 32.8535 40.0176C32.7546 39.9681 32.6803 39.9186 32.6309 39.8691C32.5814 39.8197 32.5072 39.7578 32.4082 39.6836C32.235 39.5352 32.1113 39.4238 32.0371 39.3496C31.8639 39.1764 31.765 39.0898 31.7402 39.0898C31.7155 39.0898 31.6908 39.0775 31.666 39.0527C31.4928 38.8796 31.3815 38.7311 31.332 38.6074C31.2826 38.5085 31.196 38.4342 31.0723 38.3848C30.8991 38.1126 30.8001 37.9518 30.7754 37.9023C30.7507 37.8776 30.7135 37.8652 30.6641 37.8652C30.4909 37.6178 30.3796 37.4941 30.3301 37.4941C30.3053 37.4941 30.2682 37.4694 30.2188 37.4199C30.1693 37.2467 30.1322 37.123 30.1074 37.0488C30.0827 36.9993 30.0456 36.9375 29.9961 36.8633C29.9219 36.8385 29.86 36.8014 29.8105 36.752C29.7611 36.7025 29.6868 36.653 29.5879 36.6035C29.4395 36.2819 29.3281 36.0716 29.2539 35.9727C29.2044 35.8737 29.1673 35.75 29.1426 35.6016C29.0684 35.5026 28.9941 35.416 28.9199 35.3418C28.8704 35.2923 28.8581 35.1934 28.8828 35.0449C28.7096 34.8223 28.623 34.6862 28.623 34.6367C28.6478 34.612 28.6602 34.5872 28.6602 34.5625C28.5365 34.3151 28.4746 34.1296 28.4746 34.0059C28.4746 33.8822 28.4128 33.7956 28.2891 33.7461C28.2396 33.4492 28.1901 33.2266 28.1406 33.0781C28.0417 32.806 27.9798 32.6452 27.9551 32.5957C27.9303 32.3483 27.8932 32.1751 27.8438 32.0762L27.7324 31.6309C27.6829 31.4824 27.6582 31.3835 27.6582 31.334C27.6829 31.2845 27.6953 31.235 27.6953 31.1855C27.6953 31.0618 27.6706 30.9382 27.6211 30.8145C27.5964 30.666 27.5716 30.5176 27.5469 30.3691C27.5469 30.097 27.5345 29.9486 27.5098 29.9238C27.5098 29.8991 27.5098 29.8743 27.5098 29.8496C27.5592 29.5033 27.5221 29.2311 27.3984 29.0332C27.4479 28.9837 27.4727 28.9342 27.4727 28.8848C27.4727 28.8105 27.485 28.7116 27.5098 28.5879C27.5592 28.291 27.5964 28.1178 27.6211 28.0684C27.6458 27.9941 27.6582 27.9199 27.6582 27.8457C27.6582 27.7962 27.6458 27.7344 27.6211 27.6602C27.6211 27.5612 27.6211 27.4746 27.6211 27.4004C27.6458 27.153 27.6829 26.9922 27.7324 26.918C27.7819 26.819 27.7819 26.7201 27.7324 26.6211C27.8066 26.5716 27.8561 26.4974 27.8809 26.3984C27.9056 26.2995 27.9551 26.2253 28.0293 26.1758C28.0293 25.9779 28.0169 25.8418 27.9922 25.7676C27.9922 25.6686 28.0169 25.582 28.0664 25.5078C28.1406 25.3346 28.1654 25.2233 28.1406 25.1738C28.1406 25.0996 28.153 25.0378 28.1777 24.9883C28.2767 24.7161 28.3385 24.5801 28.3633 24.5801C28.4128 24.5553 28.4499 24.5182 28.4746 24.4688C28.4993 24.2214 28.5365 24.0853 28.5859 24.0605C28.6602 24.0111 28.6725 23.9616 28.623 23.9121C28.6973 23.8379 28.7467 23.7513 28.7715 23.6523C28.7962 23.5534 28.8581 23.4792 28.957 23.4297C28.9323 23.3307 28.957 23.2689 29.0312 23.2441C29.1055 23.1947 29.1302 23.1204 29.1055 23.0215C29.2044 22.8483 29.2663 22.7493 29.291 22.7246C29.3405 22.6751 29.3529 22.6133 29.3281 22.5391C29.4518 22.2174 29.5879 22.0072 29.7363 21.9082C29.7858 21.7103 29.86 21.5495 29.959 21.4258C30.0827 21.3021 30.2064 21.1784 30.3301 21.0547C30.3301 20.9062 30.3672 20.7949 30.4414 20.7207C30.5404 20.6465 30.5898 20.5352 30.5898 20.3867C30.8125 20.263 30.9362 20.2012 30.9609 20.2012C30.9857 20.1764 31.0104 20.1393 31.0352 20.0898C31.2083 19.8672 31.3073 19.7435 31.332 19.7188C31.3815 19.6693 31.431 19.6198 31.4805 19.5703C31.901 19.224 32.235 18.8281 32.4824 18.3828C32.6803 18.2591 32.7917 18.1725 32.8164 18.123C32.8659 18.0488 32.9154 17.9622 32.9648 17.8633C33.1628 17.7396 33.2865 17.6654 33.3359 17.6406C33.4102 17.5911 33.4473 17.5046 33.4473 17.3809C33.6452 17.2819 33.7318 17.2201 33.707 17.1953C33.707 17.1706 33.7194 17.1335 33.7441 17.084C33.9915 17.0345 34.1771 16.9479 34.3008 16.8242C34.4245 16.7005 34.5605 16.5768 34.709 16.4531C34.8327 16.3789 34.9069 16.3294 34.9316 16.3047C34.9564 16.2552 34.9935 16.2057 35.043 16.1562C35.1914 16.1068 35.278 16.0573 35.3027 16.0078C35.3275 15.9336 35.377 15.8841 35.4512 15.8594C35.7233 15.6862 35.8965 15.5625 35.9707 15.4883C36.0202 15.4388 36.0573 15.3893 36.082 15.3398C36.1315 15.2904 36.2181 15.2656 36.3418 15.2656C36.3913 15.1914 36.4408 15.1419 36.4902 15.1172C36.5645 15.0677 36.6263 15.0059 36.6758 14.9316C36.8737 14.9316 37.0098 14.8945 37.084 14.8203C37.1582 14.7461 37.2201 14.6595 37.2695 14.5605C37.6159 14.5111 37.8385 14.3874 37.9375 14.1895C38.1602 13.9668 38.3828 13.8431 38.6055 13.8184C38.8281 13.7689 38.9889 13.6576 39.0879 13.4844C39.0137 13.1875 38.8034 12.9772 38.457 12.8535C38.3581 12.7051 38.2715 12.5938 38.1973 12.5195C38.123 12.4206 38.0612 12.3216 38.0117 12.2227C37.888 11.9258 37.8014 11.7402 37.752 11.666C37.7025 11.5671 37.6901 11.4805 37.7148 11.4062C37.5911 10.9857 37.5046 10.6764 37.4551 10.4785C37.4303 10.2806 37.4056 10.0703 37.3809 9.84766C37.4303 9.7487 37.4551 9.66211 37.4551 9.58789C37.4551 9.48893 37.4798 9.38997 37.5293 9.29102C37.5046 9.14258 37.5169 9.05599 37.5664 9.03125C37.6159 8.98177 37.6283 8.90755 37.6035 8.80859C37.7767 8.73438 37.8633 8.5612 37.8633 8.28906C37.987 8.16536 38.0736 8.07878 38.123 8.0293C38.1725 7.97982 38.2096 7.9056 38.2344 7.80664C38.5065 7.55924 38.6549 7.39844 38.6797 7.32422C38.7044 7.22526 38.7663 7.17578 38.8652 7.17578C39.0384 7.02734 39.1497 6.92839 39.1992 6.87891C39.3477 6.65625 39.4466 6.52018 39.4961 6.4707C39.5703 6.39648 39.6445 6.33464 39.7188 6.28516C39.9167 6.08724 40.028 5.96354 40.0527 5.91406C40.1764 5.79036 40.2754 5.69141 40.3496 5.61719C40.597 5.41927 40.7331 5.30794 40.7578 5.2832C40.9805 5.03581 41.1413 4.91211 41.2402 4.91211C41.3887 4.76367 41.5 4.66471 41.5742 4.61523C41.8216 4.49154 41.9453 4.41732 41.9453 4.39258C41.9701 4.36784 42.0072 4.33073 42.0566 4.28125C42.2051 4.15755 42.3411 4.0957 42.4648 4.0957C42.7617 3.92253 42.9596 3.82357 43.0586 3.79883C43.1823 3.74935 43.2936 3.67513 43.3926 3.57617C43.4668 3.60091 43.5286 3.60091 43.5781 3.57617C43.6276 3.55143 43.7142 3.51432 43.8379 3.46484C44.0358 3.31641 44.1471 3.26693 44.1719 3.31641C44.2214 3.34115 44.2461 3.30404 44.2461 3.20508C44.3698 3.25456 44.4688 3.25456 44.543 3.20508C44.6419 3.13086 44.7409 3.08138 44.8398 3.05664C44.9883 3.08138 45.0872 3.08138 45.1367 3.05664C45.2109 3.00716 45.2728 3.00716 45.3223 3.05664C45.6934 2.98242 45.916 2.9082 45.9902 2.83398C46.0892 2.75977 46.2129 2.7474 46.3613 2.79688C46.4603 2.7474 46.5469 2.71029 46.6211 2.68555C46.7201 2.66081 46.8314 2.66081 46.9551 2.68555C47.1283 2.56185 47.3014 2.53711 47.4746 2.61133C47.6478 2.66081 47.8086 2.69792 47.957 2.72266H48.3652C48.5879 2.7474 48.7858 2.79688 48.959 2.87109C49.1569 2.92057 49.3548 2.95768 49.5527 2.98242C49.627 3.0319 49.6888 3.08138 49.7383 3.13086C49.8125 3.18034 49.9115 3.19271 50.0352 3.16797C50.0599 3.39062 50.2207 3.50195 50.5176 3.50195C50.8639 3.67513 51.0866 3.8112 51.1855 3.91016C51.3092 3.98438 51.4577 4.04622 51.6309 4.0957C51.7051 4.16992 51.7793 4.24414 51.8535 4.31836C51.9525 4.39258 52.0885 4.44206 52.2617 4.4668C52.4102 4.76367 52.5091 4.92448 52.5586 4.94922C52.6081 4.97396 52.6328 5.01107 52.6328 5.06055C52.8555 5.18424 52.9792 5.25846 53.0039 5.2832C53.0286 5.30794 53.041 5.34505 53.041 5.39453C53.1647 5.51823 53.2513 5.6543 53.3008 5.80273C53.375 5.95117 53.474 6.07487 53.5977 6.17383C53.5977 6.34701 53.6348 6.48307 53.709 6.58203C53.7832 6.65625 53.8451 6.74284 53.8945 6.8418L53.9688 7.06445Z" fill="#7B4AE2"/>
</svg>
