<svg width="127" height="32" viewBox="0 0 127 32" fill="none" xmlns="http://www.w3.org/2000/svg">
<g clip-path="url(#clip0_113_64)">
<path d="M15.9999 0C24.837 0 32 7.164 32 16.0001C32 24.8361 24.837 32 15.9999 32C7.1629 32 0 24.836 0 16.0001C0 7.16411 7.16301 0 15.9999 0Z" fill="white" fill-opacity="0.5"/>
<path d="M9.01598 21.984H12.012V11.998H9.01598V21.984ZM20.688 11.6521C19.234 11.6521 17.933 12.183 17.0101 13.3551V11.9651H14.0031V21.9841H17.0101V16.5661C17.0101 15.4211 18.0591 14.304 19.3731 14.304C20.687 14.304 21.0111 15.4211 21.0111 16.5381V21.9831H24.0071V16.3151C24.007 12.378 22.143 11.6521 20.688 11.6521ZM10.5 11C11.328 11 12 10.328 12 9.49997C12 8.67195 11.328 8.00003 10.5 8.00003C9.67197 8.00003 8.99994 8.67206 8.99994 9.50008C8.99994 10.3281 9.67197 11 10.5 11Z" fill="#090E16"/>
</g>
<path fill-rule="evenodd" clip-rule="evenodd" d="M63.4047 0C54.3411 0 47 7.3411 47 16.4047C47 23.6638 51.6958 29.795 58.2167 31.9687C59.0369 32.1122 59.3445 31.6201 59.3445 31.1894C59.3445 30.7998 59.324 29.508 59.324 28.1341C55.2024 28.8928 54.136 27.1293 53.808 26.2065C53.6234 25.7349 52.8237 24.279 52.1265 23.8893C51.5523 23.5818 50.7321 22.823 52.106 22.8025C53.3978 22.782 54.3206 23.9919 54.6282 24.484C56.1046 26.9652 58.4628 26.268 59.4061 25.8374C59.5496 24.7711 59.9802 24.0534 60.4519 23.6433C56.8018 23.2332 52.9877 21.8183 52.9877 15.5435C52.9877 13.7594 53.6234 12.283 54.6692 11.1347C54.5052 10.7246 53.931 9.04309 54.8332 6.78744C54.8332 6.78744 56.2071 6.35682 59.3445 8.46893C60.6569 8.09982 62.0513 7.91527 63.4457 7.91527C64.8401 7.91527 66.2345 8.09982 67.5469 8.46893C70.6843 6.33632 72.0582 6.78744 72.0582 6.78744C72.9604 9.04309 72.3863 10.7246 72.2222 11.1347C73.268 12.283 73.9037 13.7389 73.9037 15.5435C73.9037 21.8388 70.0691 23.2332 66.4191 23.6433C67.0137 24.1559 67.5264 25.1402 67.5264 26.6781C67.5264 28.8723 67.5059 30.6358 67.5059 31.1894C67.5059 31.6201 67.8135 32.1327 68.6337 31.9687C75.1136 29.795 79.8094 23.6433 79.8094 16.4047C79.8094 7.3411 72.4683 0 63.4047 0Z" fill="white" fill-opacity="0.5"/>
<path d="M111 0C119.837 0 127 7.164 127 16.0001C127 24.8361 119.837 32 111 32C102.163 32 95 24.836 95 16.0001C95 7.16411 102.163 0 111 0Z" fill="white" fill-opacity="0.5"/>
<path d="M102.62 10.35L105.5 18.54L108.35 10.35H110.525L106.49 21H104.495L100.445 10.35H102.62ZM111.661 21V10.365H113.731V15.42L118.201 10.35H120.481L116.401 15.075L120.736 21H118.396L115.081 16.41L113.731 17.82V21H111.661Z" fill="black"/>
<defs>
<clipPath id="clip0_113_64">
<rect width="32" height="32" fill="white"/>
</clipPath>
</defs>
</svg>
