<svg width="64" height="66" viewBox="0 0 64 66" fill="none" xmlns="http://www.w3.org/2000/svg">
<g filter="url(#filter0_d_106_126)">
<path d="M10 13.9642H54V43.8874C54 44.4165 53.7893 44.9239 53.4142 45.298C53.0391 45.6722 52.5304 45.8823 52 45.8823H42C41.4696 45.8823 40.9609 45.6722 40.5858 45.298C40.2107 44.9239 40 44.4165 40 43.8874V37.9028H24V51.867C24 52.3961 23.7893 52.9035 23.4142 53.2776C23.0391 53.6517 22.5304 53.8619 22 53.8619H12C11.4696 53.8619 10.9609 53.6517 10.5858 53.2776C10.2107 52.9035 10 52.3961 10 51.867V13.9642Z" stroke="#7B4AE2" stroke-linecap="round" stroke-linejoin="round"/>
<path d="M24 29.9233H10" stroke="#7B4AE2" stroke-linecap="round" stroke-linejoin="round"/>
<path d="M24 13.9642V37.9028" stroke="#7B4AE2" stroke-linecap="round" stroke-linejoin="round"/>
<path d="M40 29.9233H54" stroke="#7B4AE2" stroke-linecap="round" stroke-linejoin="round"/>
<path d="M40 13.9642V37.9028" stroke="#7B4AE2" stroke-linecap="round" stroke-linejoin="round"/>
<g filter="url(#filter1_d_106_126)">
<circle cx="32" cy="37.2864" r="20" fill="#7B4AE2" fill-opacity="0.2" shape-rendering="crispEdges"/>
</g>
</g>
<defs>
<filter id="filter0_d_106_126" x="5.5" y="13.4642" width="53" height="51.8223" filterUnits="userSpaceOnUse" color-interpolation-filters="sRGB">
<feFlood flood-opacity="0" result="BackgroundImageFix"/>
<feColorMatrix in="SourceAlpha" type="matrix" values="0 0 0 0 0 0 0 0 0 0 0 0 0 0 0 0 0 0 127 0" result="hardAlpha"/>
<feOffset dy="4"/>
<feGaussianBlur stdDeviation="2"/>
<feComposite in2="hardAlpha" operator="out"/>
<feColorMatrix type="matrix" values="0 0 0 0 0 0 0 0 0 0 0 0 0 0 0 0 0 0 0.25 0"/>
<feBlend mode="normal" in2="BackgroundImageFix" result="effect1_dropShadow_106_126"/>
<feBlend mode="normal" in="SourceGraphic" in2="effect1_dropShadow_106_126" result="shape"/>
</filter>
<filter id="filter1_d_106_126" x="8" y="17.2864" width="48" height="48" filterUnits="userSpaceOnUse" color-interpolation-filters="sRGB">
<feFlood flood-opacity="0" result="BackgroundImageFix"/>
<feColorMatrix in="SourceAlpha" type="matrix" values="0 0 0 0 0 0 0 0 0 0 0 0 0 0 0 0 0 0 127 0" result="hardAlpha"/>
<feOffset dy="4"/>
<feGaussianBlur stdDeviation="2"/>
<feComposite in2="hardAlpha" operator="out"/>
<feColorMatrix type="matrix" values="0 0 0 0 0 0 0 0 0 0 0 0 0 0 0 0 0 0 0.25 0"/>
<feBlend mode="normal" in2="BackgroundImageFix" result="effect1_dropShadow_106_126"/>
<feBlend mode="normal" in="SourceGraphic" in2="effect1_dropShadow_106_126" result="shape"/>
</filter>
</defs>
</svg>
