<svg width="26" height="26" viewBox="0 0 26 26" fill="none" xmlns="http://www.w3.org/2000/svg">
<path d="M4.61097 17.9306C3.40124 15.8948 2.9781 13.4886 3.42097 11.1637C3.86384 8.8388 5.14227 6.75508 7.01625 5.30373C8.89024 3.85237 11.2309 3.1332 13.5988 3.28121C15.9667 3.42923 18.1991 4.43426 19.8767 6.10763C21.5544 7.781 22.562 10.0076 22.7104 12.3695C22.8588 14.7313 22.1378 17.066 20.6827 18.9352C19.2276 20.8044 17.1386 22.0796 14.8077 22.5213C12.4768 22.963 10.0645 22.541 8.02347 21.3343V21.3343L4.65159 22.2866C4.51344 22.3269 4.36697 22.3294 4.22753 22.2938C4.08808 22.2582 3.9608 22.1859 3.85902 22.0844C3.75724 21.9829 3.68472 21.8559 3.64905 21.7168C3.61338 21.5777 3.61588 21.4316 3.65628 21.2938L4.61097 17.9306Z" stroke="#7B4AE2" stroke-opacity="0.5" stroke-linecap="round" stroke-linejoin="round"/>
<path d="M15.4477 18.6397C14.3786 18.6424 13.3195 18.4343 12.3313 18.0275C11.3431 17.6206 10.4452 17.023 9.68928 16.269C8.93333 15.515 8.3342 14.6194 7.92632 13.6337C7.51844 12.6481 7.30985 11.5917 7.31253 10.5254C7.31521 9.77483 7.61601 9.05597 8.14902 8.52621C8.68204 7.99646 9.40382 7.69901 10.1563 7.69901V7.69901C10.2804 7.69802 10.4025 7.73043 10.5098 7.79283C10.617 7.85522 10.7054 7.9453 10.7657 8.05357L11.9539 10.1201C12.0246 10.2458 12.0609 10.3877 12.0591 10.5318C12.0573 10.6758 12.0175 10.8169 11.9438 10.9407L10.9891 12.5312C11.4781 13.6162 12.3489 14.4848 13.4367 14.9725L15.0313 14.0203C15.1554 13.9467 15.2968 13.9071 15.4412 13.9053C15.5857 13.9035 15.728 13.9397 15.8539 14.0102L17.9258 15.1954C18.0344 15.2555 18.1247 15.3437 18.1872 15.4506C18.2498 15.5576 18.2823 15.6794 18.2813 15.8032C18.2786 16.5529 17.9795 17.2713 17.449 17.8024C16.9185 18.3335 16.1993 18.6344 15.4477 18.6397V18.6397Z" stroke="#7B4AE2" stroke-opacity="0.5" stroke-linecap="round" stroke-linejoin="round"/>
</svg>
