<svg width="40" height="40" viewBox="0 0 40 40" fill="none" xmlns="http://www.w3.org/2000/svg">
<path d="M7.09381 27.5856C5.23269 24.4536 4.5817 20.7518 5.26303 17.175C5.94437 13.5982 7.91119 10.3925 10.7942 8.15964C13.6773 5.92678 17.2783 4.82036 20.9213 5.04808C24.5642 5.2758 27.9986 6.822 30.5796 9.39641C33.1606 11.9708 34.7108 15.3964 34.9391 19.03C35.1674 22.6637 34.0581 26.2555 31.8195 29.1312C29.581 32.0068 26.367 33.9686 22.7811 34.6482C19.1951 35.3278 15.4838 34.6785 12.3438 32.8221V32.8221L7.15631 34.2871C6.94377 34.3491 6.71843 34.353 6.5039 34.2982C6.28936 34.2435 6.09354 34.1322 5.93696 33.976C5.78038 33.8198 5.66881 33.6245 5.61393 33.4105C5.55905 33.1966 5.56289 32.9718 5.62506 32.7598L7.09381 27.5856Z" stroke="#7B4AE2" stroke-opacity="0.5" stroke-linecap="round" stroke-linejoin="round"/>
<path d="M23.7657 28.6764C22.1209 28.6805 20.4916 28.3604 18.9713 27.7345C17.4509 27.1086 16.0696 26.1892 14.9066 25.0292C13.7436 23.8691 12.8218 22.4913 12.1943 20.9749C11.5668 19.4584 11.2459 17.8333 11.25 16.1927C11.2542 15.0381 11.7169 13.9321 12.537 13.1171C13.357 12.3021 14.4674 11.8445 15.625 11.8445V11.8445C15.816 11.843 16.0039 11.8929 16.1689 11.9888C16.3339 12.0848 16.4699 12.2234 16.5625 12.39L18.3907 15.5693C18.4994 15.7626 18.5552 15.981 18.5524 16.2026C18.5497 16.4242 18.4885 16.6412 18.375 16.8317L16.9063 19.2786C17.6586 20.9479 18.9983 22.2842 20.6719 23.0346L23.125 21.5696C23.3161 21.4564 23.5336 21.3954 23.7558 21.3926C23.9779 21.3899 24.1969 21.4456 24.3907 21.554L27.5782 23.3774C27.7452 23.4699 27.8841 23.6055 27.9803 23.7701C28.0766 23.9346 28.1266 24.122 28.125 24.3125C28.121 25.466 27.6608 26.5712 26.8446 27.3882C26.0284 28.2053 24.922 28.6682 23.7657 28.6764V28.6764Z" stroke="#7B4AE2" stroke-opacity="0.5" stroke-linecap="round" stroke-linejoin="round"/>
</svg>
