<svg width="963" height="77" viewBox="0 0 963 77" fill="none" xmlns="http://www.w3.org/2000/svg">
<path d="M534.366 62.9622L512.254 56.824L507.277 1H561.523L556.541 56.8147L534.366 62.9622Z" stroke="#7B4AE2" stroke-opacity="0.5" stroke-width="2"/>
<path fill-rule="evenodd" clip-rule="evenodd" d="M548.859 47.7634L548.965 46.5699L550.625 27.9708L550.798 26.0738H525.052L524.406 18.8394H534.388H551.418L551.582 17.2515L551.904 13.67L552.073 11.7747H534.388H516.685L516.854 13.67L518.591 33.1384H534.4H543.075L542.255 42.3008L534.399 44.4212L526.501 42.3053L525.998 36.6708H522.175H518.906L519.896 47.7634L534.368 51.7808L548.859 47.7634Z" fill="#7B4AE2" fill-opacity="0.5"/>
<path fill-rule="evenodd" clip-rule="evenodd" d="M411 0L416.136 57.602L439.183 64L462.293 57.5926L467.434 0H411ZM457.915 53.9685L439.265 59.0994L439.265 51.7678L439.208 51.7811L424.712 47.7674L423.723 36.6823H430.815L431.33 42.309L439.21 44.4253L439.265 44.4171V33.0141L423.374 33.014L422.756 25.9598V25.9598L439.265 18.894L439.265 18.406H422.128L421.502 11.3517H439.193H439.265L439.265 4.79706H462.285L457.915 53.9685Z" fill="#7B4AE2" fill-opacity="0.5"/>
<path fill-rule="evenodd" clip-rule="evenodd" d="M440.403 18.4061L439.265 18.8941V25.9598H439.265V33.0141H447.892L447.108 42.237L439.265 44.4232V51.7734L453.713 47.7596L455.615 25.9598H439.265L456.256 18.4061L456.863 11.3518H439.265V18.3176V18.4061H440.403Z" fill="#7B4AE2" fill-opacity="0.5"/>
<g clip-path="url(#clip0_21_3145)">
<path fill-rule="evenodd" clip-rule="evenodd" d="M622.851 0C616.963 0 612.184 4.77867 612.184 10.6667C612.184 16.5547 616.963 21.3333 622.851 21.3333C616.963 21.3333 612.184 26.112 612.184 32C612.184 37.888 616.963 42.6667 622.851 42.6667C616.963 42.6667 612.184 47.4453 612.184 53.3333C612.184 59.2213 616.963 64 622.851 64C628.739 64 633.518 59.2213 633.518 53.3333L633.518 32C633.518 37.888 638.296 42.6667 644.184 42.6667C650.072 42.6667 654.851 37.888 654.851 32C654.851 26.112 650.072 21.3333 644.184 21.3333C650.072 21.3333 654.851 16.5547 654.851 10.6667C654.851 4.77867 650.072 0 644.184 0H622.851ZM644.184 21.3333H633.518L633.518 32C633.518 26.112 638.296 21.3333 644.184 21.3333Z" fill="#7B4AE2" fill-opacity="0.5"/>
</g>
<path fill-rule="evenodd" clip-rule="evenodd" d="M732.435 1.5C715.178 1.5 701.184 15.4909 701.184 32.7503C701.184 46.5574 710.138 58.2714 722.555 62.4035C724.117 62.6928 724.69 61.7256 724.69 60.9002C724.69 60.155 724.661 57.6933 724.648 55.0821C715.954 56.9725 714.119 51.395 714.119 51.395C712.698 47.7829 710.65 46.8224 710.65 46.8224C707.814 44.8828 710.863 44.9227 710.863 44.9227C714.001 45.1431 715.654 48.143 715.654 48.143C718.441 52.9205 722.964 51.5393 724.748 50.7408C725.028 48.7211 725.838 47.3425 726.732 46.5621C719.791 45.7719 712.494 43.0923 712.494 31.1181C712.494 27.7063 713.715 24.9185 715.714 22.7301C715.389 21.943 714.32 18.7645 716.017 14.46C716.017 14.46 718.641 13.6202 724.613 17.6633C727.105 16.9709 729.779 16.6237 732.435 16.6118C735.09 16.6237 737.766 16.9709 740.263 17.6633C746.228 13.6202 748.848 14.46 748.848 14.46C750.549 18.7645 749.479 21.943 749.155 22.7301C751.158 24.9185 752.371 27.7063 752.371 31.1181C752.371 43.1208 745.06 45.7636 738.102 46.5373C739.222 47.507 740.221 49.4088 740.221 52.3244C740.221 56.5057 740.185 59.8709 740.185 60.9002C740.185 61.7318 740.748 62.7063 742.332 62.3994C754.742 58.2626 763.684 46.5528 763.684 32.7503C763.684 15.4909 749.693 1.5 732.435 1.5ZM712.889 46.0167C712.82 46.1719 712.575 46.2185 712.353 46.1119C712.126 46.0099 711.999 45.7983 712.072 45.6425C712.14 45.4826 712.384 45.4381 712.611 45.5452C712.838 45.6472 712.967 45.8609 712.889 46.0167ZM714.426 47.3882C714.277 47.5264 713.985 47.4622 713.788 47.2439C713.583 47.026 713.545 46.7347 713.696 46.5944C713.85 46.4562 714.132 46.5209 714.337 46.7388C714.542 46.9592 714.581 47.2485 714.426 47.3882ZM715.48 49.1432C715.289 49.2761 714.976 49.1514 714.782 48.8735C714.591 48.5956 714.591 48.2624 714.786 48.1289C714.98 47.9954 715.289 48.1154 715.485 48.3912C715.676 48.6738 715.676 49.007 715.48 49.1432ZM717.264 51.1756C717.092 51.3645 716.728 51.3138 716.461 51.056C716.187 50.804 716.111 50.4464 716.283 50.2575C716.456 50.0681 716.823 50.1214 717.092 50.3771C717.364 50.6286 717.446 50.9888 717.264 51.1756ZM719.569 51.8617C719.493 52.1065 719.142 52.2177 718.788 52.1137C718.434 52.0066 718.203 51.7199 718.274 51.4726C718.348 51.2262 718.701 51.1103 719.057 51.2216C719.41 51.3282 719.642 51.6128 719.569 51.8617ZM722.192 52.1527C722.201 52.4105 721.9 52.6242 721.529 52.6288C721.155 52.6371 720.853 52.4286 720.849 52.175C720.849 51.9147 721.142 51.703 721.516 51.6968C721.888 51.6896 722.192 51.8966 722.192 52.1527ZM724.769 52.054C724.813 52.3055 724.555 52.5637 724.186 52.6325C723.823 52.6988 723.487 52.5435 723.441 52.2941C723.396 52.0364 723.659 51.7781 724.022 51.7114C724.391 51.6472 724.722 51.7983 724.769 52.054Z" fill="#7B4AE2" fill-opacity="0.5"/>
<path fill-rule="evenodd" clip-rule="evenodd" d="M862.228 29.1489L834.284 1.20714C832.676 -0.402379 830.066 -0.402379 828.456 1.20714L822.653 7.00968L830.014 14.3705C831.725 13.7925 833.686 14.1802 835.05 15.5439C836.42 16.9161 836.805 18.8942 836.213 20.6105L843.307 27.7044C845.023 27.1132 847.003 27.4959 848.374 28.8687C850.29 30.7837 850.29 33.8876 848.374 35.804C846.458 37.7204 843.354 37.7204 841.437 35.804C839.996 34.3616 839.64 32.2451 840.369 30.4698L833.754 23.8541L833.753 41.2638C834.22 41.4956 834.661 41.8039 835.05 42.1915C836.966 44.1065 836.966 47.2103 835.05 49.1281C833.133 51.0438 830.028 51.0438 828.115 49.1281C826.199 47.2103 826.199 44.1065 828.115 42.1915C828.588 41.7189 829.136 41.3614 829.72 41.1213V23.5493C829.136 23.3106 828.589 22.9553 828.115 22.4791C826.663 21.0297 826.314 18.8999 827.058 17.1176L819.802 9.86074L800.642 29.0197C799.032 30.6306 799.032 33.2408 800.642 34.8504L828.586 62.7929C830.195 64.4024 832.804 64.4024 834.415 62.7929L862.228 34.9803C863.838 33.3701 863.838 30.7585 862.228 29.1489" fill="#7B4AE2" fill-opacity="0.5"/>
<g clip-path="url(#clip1_21_3145)">
<path d="M930.435 0C912.762 0 898.435 14.3269 898.435 32C898.435 49.6732 912.762 64 930.435 64C948.109 64 962.435 49.6732 962.435 32C962.435 14.3269 948.109 0 930.435 0ZM930.435 3.25424C946.311 3.25424 959.181 16.1242 959.181 32C959.181 47.8758 946.311 60.7458 930.435 60.7458C914.56 60.7458 901.69 47.8758 901.69 32C901.69 16.1242 914.56 3.25424 930.435 3.25424Z" fill="#7B4AE2" fill-opacity="0.5"/>
<path d="M930.797 9.22046C943.378 9.22046 953.577 19.4193 953.577 32.0001C953.577 44.5809 943.378 54.7797 930.797 54.7797C918.216 54.7797 908.017 44.5809 908.017 32.0001C908.017 28.9255 908.626 25.9931 909.731 23.3169C911.343 25.5125 913.943 26.9379 916.876 26.9379C921.769 26.9379 925.735 22.9717 925.735 18.0792C925.735 15.1462 924.309 12.5461 922.114 10.9339C924.79 9.82962 927.722 9.22046 930.797 9.22046Z" fill="#7B4AE2" fill-opacity="0.5"/>
</g>
<path d="M55.9096 19.4471C55.2042 19.2063 54.4733 18.9785 53.7207 18.763C53.8444 18.2624 53.9579 17.7682 54.0588 17.2824C55.7159 9.30552 54.6324 2.87932 50.9329 0.76354C47.3855 -1.26521 41.5839 0.850088 35.7247 5.90702C35.1612 6.39329 34.5962 6.90813 34.0315 7.4477C33.6552 7.09071 33.2795 6.74572 32.9047 6.41574C26.764 1.00854 20.609 -1.27013 16.913 0.851768C13.369 2.8864 12.3195 8.92764 13.811 16.4874C13.9551 17.2175 14.1234 17.9632 14.3138 18.7214C13.4427 18.9666 12.6017 19.2281 11.7971 19.5062C4.59779 21.9954 0 25.8966 0 29.9432C0 34.1225 4.93573 38.3145 12.4343 40.8563C13.0261 41.0569 13.6401 41.2465 14.2729 41.4266C14.0675 42.2465 13.8889 43.0501 13.7389 43.8338C12.3167 51.2623 13.4273 57.1608 16.9619 59.1826C20.6128 61.2706 26.7401 59.1244 32.7065 53.9522C33.178 53.5434 33.6513 53.1098 34.1254 52.6553C34.7399 53.2422 35.3535 53.7976 35.9637 54.3186C41.7429 59.2506 47.4507 61.2421 50.982 59.2147C54.6293 57.1207 55.8146 50.7843 54.2757 43.075C54.1582 42.4863 54.0214 41.8848 53.8678 41.2726C54.2981 41.1464 54.7206 41.0162 55.1325 40.8808C62.928 38.3193 68 34.1783 68 29.9432C68 25.882 63.2539 21.9545 55.9096 19.4471ZM54.2189 38.1462C53.847 38.2683 53.4655 38.3863 53.0767 38.5007C52.2161 35.7987 51.0547 32.9256 49.6333 29.9572C50.9897 27.0595 52.1062 24.2232 52.9427 21.5388C53.6384 21.7384 54.3135 21.9489 54.9641 22.1711C61.2567 24.3194 65.0951 27.4957 65.0951 29.9432C65.0951 32.5502 60.9497 35.9344 54.2189 38.1462ZM51.426 43.6345C52.1065 47.0435 52.2037 50.1256 51.7529 52.5349C51.3479 54.6999 50.5335 56.1434 49.5264 56.7215C47.3834 57.9516 42.8006 56.3526 37.8582 52.1347C37.2917 51.6512 36.721 51.135 36.1484 50.5885C38.0645 48.5103 39.9795 46.0943 41.8484 43.4111C45.1357 43.1219 48.2415 42.6489 51.0579 42.0032C51.1966 42.5582 51.3198 43.1024 51.426 43.6345ZM23.1827 56.5089C21.089 57.2422 19.4214 57.2632 18.4134 56.6868C16.2685 55.4599 15.3768 50.7239 16.5931 44.3711C16.7324 43.6435 16.8983 42.8962 17.0894 42.1323C19.875 42.7431 22.958 43.1827 26.2531 43.4476C28.1347 46.0732 30.105 48.4866 32.0905 50.5997C31.6567 51.015 31.2246 51.4104 30.7949 51.783C28.1566 54.0701 25.5127 55.6928 23.1827 56.5089ZM13.3739 38.1302C10.0581 37.0063 7.31984 35.5456 5.44289 33.9516C3.75633 32.5192 2.90482 31.0971 2.90482 29.9432C2.90482 27.4876 6.59639 24.3554 12.7533 22.2266C13.5003 21.9683 14.2824 21.7248 15.0939 21.4962C15.9448 24.2412 17.0611 27.1111 18.4081 30.0133C17.0436 32.9585 15.9116 35.8742 15.0523 38.6514C14.4737 38.4865 13.9132 38.3129 13.3739 38.1302ZM16.6619 15.9341C15.3839 9.45713 16.2327 4.57113 18.3684 3.34506C20.6433 2.03894 25.6738 3.9012 30.9758 8.57005C31.3147 8.86847 31.655 9.1808 31.9962 9.50394C30.0205 11.6078 28.0682 14.0031 26.2034 16.6132C23.0053 16.9071 19.944 17.3794 17.1293 18.0117C16.9524 17.3058 16.7956 16.6122 16.6619 15.9341ZM45.994 23.117C45.3211 21.9644 44.6304 20.8391 43.9262 19.7445C46.0958 20.0165 48.1745 20.3775 50.1266 20.8194C49.5406 22.6821 48.8101 24.6297 47.9502 26.6263C47.3334 25.465 46.681 24.294 45.994 23.117ZM34.0324 11.5628C35.3723 13.0024 36.7142 14.6097 38.034 16.3536C36.704 16.2913 35.3576 16.2589 34 16.2589C32.6553 16.2589 31.3187 16.2906 29.997 16.3518C31.3181 14.6241 32.6716 13.019 34.0324 11.5628ZM21.9943 23.137C21.3221 24.2928 20.6818 25.4574 20.0747 26.6242C19.2288 24.6345 18.5051 22.678 17.9139 20.7889C19.854 20.3583 21.923 20.0063 24.0788 19.7394C23.3647 20.8441 22.6682 21.9777 21.9943 23.1367V23.137ZM24.1409 40.3525C21.9135 40.106 19.8135 39.7721 17.8738 39.3534C18.4744 37.4305 19.2141 35.4323 20.078 33.3998C20.6867 34.5657 21.3295 35.7308 22.0058 36.8892H22.0059C22.6947 38.0692 23.4084 39.2252 24.1409 40.3525ZM34.1128 48.5267C32.736 47.0534 31.3627 45.4238 30.0214 43.6709C31.3235 43.7216 32.6509 43.7475 34 43.7475C35.386 43.7475 36.7562 43.7165 38.1048 43.657C36.7806 45.4415 35.4436 47.0736 34.1128 48.5267ZM47.978 33.2962C48.8868 35.3506 49.653 37.3385 50.2614 39.2286C48.2898 39.6746 46.161 40.0339 43.9182 40.3009C44.6241 39.1915 45.3209 38.0468 46.0056 36.8693C46.6983 35.6781 47.3561 34.485 47.978 33.2962ZM43.4893 35.4301C42.4264 37.2579 41.3351 39.0028 40.2272 40.6498C38.2094 40.7929 36.1247 40.8666 34 40.8666C31.8839 40.8666 29.8255 40.8014 27.8433 40.6738C26.6908 39.0052 25.5758 37.2552 24.5196 35.4458H24.5199C23.4665 33.6414 22.4969 31.8218 21.6184 30.0123C22.4967 28.1987 23.4637 26.377 24.511 24.5758L24.5108 24.5762C25.5609 22.7702 26.6661 21.0287 27.808 19.3705C29.8303 19.2189 31.9041 19.1398 33.9999 19.1398H34C36.1052 19.1398 38.1817 19.2195 40.2034 19.3725C41.3278 21.0185 42.4255 22.7544 43.4798 24.5606C44.546 26.3871 45.5255 28.1966 46.4112 29.9714C45.5281 31.7766 44.5509 33.6044 43.4893 35.4301ZM49.4819 3.25936C51.759 4.56164 52.6445 9.81376 51.2138 16.7009C51.1226 17.1404 51.0198 17.588 50.9082 18.0416C48.087 17.396 45.0235 16.9157 41.8161 16.6172C39.9476 13.9785 38.0114 11.5795 36.0678 9.50262C36.5904 9.00411 37.1122 8.52876 37.6318 8.08018C42.652 3.74743 47.3441 2.03678 49.4819 3.25936ZM34 23.9213C37.3535 23.9213 40.0722 26.6173 40.0722 29.9432C40.0722 33.2689 37.3535 35.9651 34 35.9651C30.6465 35.9651 27.9278 33.2689 27.9278 29.9432C27.9278 26.6173 30.6465 23.9213 34 23.9213Z" fill="#7B4AE2" fill-opacity="0.5"/>
<g clip-path="url(#clip2_21_3145)">
<path fill-rule="evenodd" clip-rule="evenodd" d="M104.727 10.7266C104.727 6.30828 108.308 2.72656 112.727 2.72656H157.273C161.692 2.72656 165.273 6.30828 165.273 10.7266V55.2734C165.273 59.6917 161.692 63.2734 157.273 63.2734H112.727C108.308 63.2734 104.727 59.6917 104.727 55.2734V10.7266ZM120.647 53.3239C120.647 53.3239 120.647 53.3239 120.647 53.3239L120.647 53.3239C121.988 56.1685 124.63 58.5257 129.181 58.5257C134.221 58.5257 137.676 55.8433 137.676 49.9501V33.3684C137.676 31.7972 136.402 30.5234 134.831 30.5234V30.5234C133.26 30.5234 131.986 31.7972 131.986 33.3684V49.8696C131.986 52.7144 130.807 53.4457 128.938 53.4457V53.4457C126.218 53.4457 123.355 51.6846 121.029 53.0924L120.647 53.3239L120.647 53.3239C120.647 53.3238 120.647 53.3238 120.647 53.3239V53.3239ZM147.115 52.1271C145.964 51.1457 144.355 50.6365 143.046 51.3944V51.3944C141.767 52.135 141.26 53.7821 142.238 54.8907C144.146 57.0543 147.092 58.5262 151.13 58.5262C156.536 58.5262 160.559 55.7221 160.559 50.6008C160.559 45.8457 157.836 43.7326 152.999 41.6596L151.577 41.05C149.139 39.9933 148.082 39.3022 148.082 37.5951C148.082 36.2135 149.139 35.1568 150.805 35.1568C151.499 35.1568 152.089 35.2827 152.614 35.563C153.945 36.2746 155.536 36.9059 156.806 36.0902V36.0902C157.977 35.3387 158.393 33.76 157.441 32.7464C155.737 30.933 153.567 30.1981 150.805 30.1981C145.724 30.1981 142.473 33.4497 142.473 37.7172C142.473 42.3506 145.196 44.5452 149.301 46.2925L150.724 46.9026C153.325 48.0402 154.869 48.7312 154.869 50.6821C154.869 52.3078 153.366 53.4866 151.008 53.4866C149.338 53.4866 148.1 52.9676 147.115 52.1271Z" fill="#7B4AE2" fill-opacity="0.5"/>
</g>
<g clip-path="url(#clip3_21_3145)">
<path fill-rule="evenodd" clip-rule="evenodd" d="M259.156 0H206.844C204.169 0 202 2.16862 202 4.84375V57.1562C202 59.8314 204.169 62 206.844 62H259.156C261.831 62 264 59.8314 264 57.1562V4.84375C264 2.16862 261.831 0 259.156 0ZM238.454 55.2418V48.5525C239.667 49.57 240.985 50.3329 242.408 50.8415C243.83 51.3503 245.267 51.6046 246.717 51.6046C247.568 51.6046 248.311 51.5278 248.945 51.3745C249.58 51.2212 250.11 51.0088 250.535 50.7371C250.961 50.4653 251.278 50.1447 251.487 49.7756C251.696 49.4062 251.801 49.0054 251.801 48.5736C251.801 47.9882 251.634 47.4656 251.299 47.0057C250.964 46.5458 250.507 46.1207 249.929 45.7306C249.35 45.3404 248.663 44.9643 247.868 44.602C247.073 44.2394 246.215 43.8703 245.295 43.494C242.951 42.5184 241.205 41.3269 240.054 39.9195C238.903 38.5119 238.328 36.8118 238.328 34.8191C238.328 33.2582 238.642 31.9169 239.27 30.7951C239.897 29.6733 240.751 28.7501 241.832 28.0252C242.913 27.3006 244.165 26.7675 245.588 26.4263C247.01 26.0848 248.516 25.9141 250.106 25.9141C251.669 25.9141 253.053 26.008 254.259 26.1962C255.466 26.3844 256.578 26.6736 257.596 27.0637V33.3139C257.094 32.9656 256.546 32.659 255.954 32.3943C255.361 32.1293 254.751 31.9099 254.123 31.7358C253.496 31.5614 252.871 31.4325 252.251 31.349C251.63 31.2654 251.041 31.2235 250.483 31.2235C249.716 31.2235 249.019 31.2967 248.391 31.443C247.763 31.5895 247.233 31.7949 246.801 32.0598C246.369 32.3245 246.034 32.6415 245.797 33.0109C245.56 33.3802 245.441 33.7946 245.441 34.2545C245.441 34.7563 245.574 35.2056 245.839 35.6028C246.104 36 246.48 36.3763 246.968 36.7316C247.456 37.0871 248.049 37.4354 248.747 37.7769C249.444 38.1184 250.232 38.47 251.111 38.8326C252.31 39.3342 253.388 39.8672 254.343 40.4315C255.298 40.996 256.118 41.6335 256.801 42.3443C257.484 43.0549 258.008 43.8667 258.37 44.7795C258.733 45.6923 258.914 46.755 258.914 47.9674C258.914 49.6397 258.597 51.0437 257.962 52.1793C257.327 53.3152 256.466 54.235 255.378 54.9388C254.291 55.6423 253.025 56.1475 251.581 56.4541C250.138 56.7608 248.614 56.9141 247.01 56.9141C245.364 56.9141 243.799 56.7748 242.314 56.496C240.828 56.2173 239.541 55.7993 238.454 55.2418ZM235.906 31.9063H227.304V56.4297H220.49V31.9063H211.93V26.3984H235.906V31.9063Z" fill="#7B4AE2" fill-opacity="0.5"/>
</g>
<path d="M334.978 0.020721C334.813 0.0357725 334.286 0.088453 333.812 0.126082C322.875 1.11196 312.631 7.01217 306.143 16.0807C302.53 21.123 300.219 26.8426 299.346 32.9008C299.038 35.0156 299 35.6402 299 38.5075C299 41.3749 299.038 41.9995 299.346 44.1142C301.439 58.5713 311.728 70.7179 325.683 75.2183C328.182 76.0235 330.816 76.5729 333.812 76.904C334.978 77.032 340.022 77.032 341.188 76.904C346.359 76.3321 350.74 75.0527 355.06 72.8477C355.723 72.509 355.851 72.4187 355.76 72.3434C355.7 72.2983 352.877 68.5128 349.49 63.9371L343.333 55.6212L335.618 44.2045C331.373 37.9281 327.881 32.7955 327.851 32.7955C327.82 32.7879 327.79 37.8603 327.775 44.054C327.753 54.8987 327.745 55.3352 327.61 55.591C327.414 55.9598 327.263 56.1103 326.947 56.2759C326.706 56.3963 326.496 56.4189 325.359 56.4189H324.057L323.711 56.2006C323.485 56.0576 323.319 55.8695 323.206 55.6513L323.048 55.3126L323.063 40.2234L323.086 25.1267L323.319 24.8332C323.44 24.6752 323.696 24.472 323.876 24.3741C324.185 24.2236 324.305 24.2086 325.608 24.2086C327.143 24.2086 327.399 24.2688 327.798 24.7053C327.911 24.8257 332.088 31.1172 337.086 38.6957C342.084 46.2741 348.918 56.6221 352.275 61.702L358.372 70.9361L358.681 70.7329C361.413 68.9568 364.303 66.4282 366.591 63.7941C371.461 58.2025 374.6 51.3841 375.654 44.1142C375.962 41.9995 376 41.3749 376 38.5075C376 35.6402 375.962 35.0156 375.654 32.9008C373.561 18.4438 363.272 6.29722 349.317 1.7968C346.856 0.999072 344.237 0.44969 341.301 0.118556C340.578 0.0432983 335.603 -0.0394852 334.978 0.020721ZM350.74 23.3055C351.101 23.4861 351.395 23.8323 351.5 24.1935C351.56 24.3892 351.575 28.5735 351.56 38.0033L351.538 51.5347L349.152 47.8771L346.758 44.2196V34.3834C346.758 28.0241 346.788 24.4494 346.833 24.2763C346.954 23.8549 347.217 23.5237 347.578 23.328C347.887 23.17 348 23.155 349.182 23.155C350.296 23.155 350.491 23.17 350.74 23.3055Z" fill="#7B4AE2" fill-opacity="0.5"/>
<defs>
<clipPath id="clip0_21_3145">
<rect width="64" height="64" fill="white" transform="translate(601.434)"/>
</clipPath>
<clipPath id="clip1_21_3145">
<rect width="64" height="64" fill="white" transform="translate(898.435)"/>
</clipPath>
<clipPath id="clip2_21_3145">
<rect x="104" y="2" width="62" height="62" rx="8" fill="white"/>
</clipPath>
<clipPath id="clip3_21_3145">
<rect width="62" height="62" fill="white" transform="translate(202)"/>
</clipPath>
</defs>
</svg>
